<svg width="220" height="220" viewBox="0 0 220 220" fill="none" xmlns="http://www.w3.org/2000/svg">
<g opacity="0.9">
<circle cx="110" cy="110" r="110" fill="#ECECEC" fill-opacity="0.8"/>
<path d="M75.9844 185H74.2549L69.8184 177.938V185H68.0889V175.047H69.8184L74.2686 182.136V175.047H75.9844V185ZM77.5566 181.233C77.5566 180.509 77.7002 179.857 77.9873 179.278C78.2744 178.695 78.6777 178.248 79.1973 177.938C79.7168 177.624 80.3138 177.467 80.9883 177.467C81.9863 177.467 82.7952 177.788 83.415 178.431C84.0394 179.073 84.3766 179.925 84.4268 180.987L84.4336 181.377C84.4336 182.106 84.2923 182.758 84.0098 183.332C83.7318 183.906 83.3307 184.351 82.8066 184.665C82.2871 184.979 81.6855 185.137 81.002 185.137C79.9583 185.137 79.1221 184.79 78.4932 184.098C77.8688 183.4 77.5566 182.473 77.5566 181.315V181.233ZM79.2178 181.377C79.2178 182.138 79.375 182.735 79.6895 183.168C80.0039 183.596 80.4414 183.811 81.002 183.811C81.5625 183.811 81.9977 183.592 82.3076 183.154C82.6221 182.717 82.7793 182.076 82.7793 181.233C82.7793 180.486 82.6175 179.894 82.2939 179.456C81.9749 179.019 81.5397 178.8 80.9883 178.8C80.446 178.8 80.0153 179.016 79.6963 179.449C79.3773 179.878 79.2178 180.52 79.2178 181.377ZM93.7441 185C93.6712 184.859 93.6074 184.629 93.5527 184.31C93.0241 184.861 92.377 185.137 91.6113 185.137C90.8685 185.137 90.2624 184.925 89.793 184.501C89.3236 184.077 89.0889 183.553 89.0889 182.929C89.0889 182.14 89.3805 181.536 89.9639 181.117C90.5518 180.693 91.3903 180.481 92.4795 180.481H93.498V179.996C93.498 179.613 93.391 179.308 93.1768 179.08C92.9626 178.848 92.6367 178.731 92.1992 178.731C91.821 178.731 91.5111 178.827 91.2695 179.019C91.028 179.205 90.9072 179.445 90.9072 179.736H89.2461C89.2461 179.331 89.3805 178.952 89.6494 178.602C89.9183 178.246 90.2829 177.968 90.7432 177.768C91.208 177.567 91.7253 177.467 92.2949 177.467C93.1608 177.467 93.8512 177.686 94.3662 178.123C94.8812 178.556 95.1455 179.167 95.1592 179.955V183.291C95.1592 183.956 95.2526 184.487 95.4395 184.884V185H93.7441ZM91.9189 183.804C92.2471 183.804 92.5547 183.724 92.8418 183.564C93.1335 183.405 93.3522 183.191 93.498 182.922V181.527H92.6025C91.9873 181.527 91.5247 181.634 91.2148 181.849C90.9049 182.063 90.75 182.366 90.75 182.758C90.75 183.077 90.8548 183.332 91.0645 183.523C91.2786 183.71 91.5635 183.804 91.9189 183.804ZM101.38 184.275C100.892 184.85 100.2 185.137 99.3018 185.137C98.4997 185.137 97.8913 184.902 97.4766 184.433C97.0664 183.963 96.8613 183.284 96.8613 182.396V177.604H98.5225V182.375C98.5225 183.314 98.9121 183.783 99.6914 183.783C100.498 183.783 101.043 183.494 101.325 182.915V177.604H102.986V185H101.421L101.38 184.275ZM104.367 181.247C104.367 180.108 104.632 179.194 105.16 178.506C105.689 177.813 106.397 177.467 107.286 177.467C108.07 177.467 108.703 177.74 109.187 178.287V174.5H110.848V185H109.344L109.262 184.234C108.765 184.836 108.102 185.137 107.272 185.137C106.407 185.137 105.705 184.788 105.167 184.091C104.634 183.394 104.367 182.446 104.367 181.247ZM106.028 181.391C106.028 182.143 106.172 182.73 106.459 183.154C106.751 183.574 107.163 183.783 107.696 183.783C108.375 183.783 108.872 183.48 109.187 182.874V179.716C108.881 179.123 108.389 178.827 107.71 178.827C107.172 178.827 106.757 179.041 106.466 179.47C106.174 179.894 106.028 180.534 106.028 181.391ZM114.348 185H112.687V177.604H114.348V185ZM112.584 175.683C112.584 175.427 112.664 175.215 112.823 175.047C112.987 174.878 113.22 174.794 113.521 174.794C113.821 174.794 114.054 174.878 114.218 175.047C114.382 175.215 114.464 175.427 114.464 175.683C114.464 175.933 114.382 176.143 114.218 176.312C114.054 176.476 113.821 176.558 113.521 176.558C113.22 176.558 112.987 176.476 112.823 176.312C112.664 176.143 112.584 175.933 112.584 175.683ZM115.852 181.233C115.852 180.509 115.995 179.857 116.282 179.278C116.569 178.695 116.973 178.248 117.492 177.938C118.012 177.624 118.609 177.467 119.283 177.467C120.281 177.467 121.09 177.788 121.71 178.431C122.334 179.073 122.672 179.925 122.722 180.987L122.729 181.377C122.729 182.106 122.587 182.758 122.305 183.332C122.027 183.906 121.626 184.351 121.102 184.665C120.582 184.979 119.98 185.137 119.297 185.137C118.253 185.137 117.417 184.79 116.788 184.098C116.164 183.4 115.852 182.473 115.852 181.315V181.233ZM117.513 181.377C117.513 182.138 117.67 182.735 117.984 183.168C118.299 183.596 118.736 183.811 119.297 183.811C119.857 183.811 120.293 183.592 120.603 183.154C120.917 182.717 121.074 182.076 121.074 181.233C121.074 180.486 120.912 179.894 120.589 179.456C120.27 179.019 119.835 178.8 119.283 178.8C118.741 178.8 118.31 179.016 117.991 179.449C117.672 179.878 117.513 180.52 117.513 181.377ZM130.207 182.621L131.711 177.604H133.481L130.542 186.121C130.091 187.365 129.325 187.987 128.245 187.987C128.004 187.987 127.737 187.946 127.445 187.864V186.579L127.76 186.6C128.179 186.6 128.493 186.522 128.703 186.367C128.917 186.217 129.086 185.962 129.209 185.602L129.448 184.966L126.851 177.604H128.642L130.207 182.621ZM137.604 185.137C136.551 185.137 135.696 184.806 135.04 184.146C134.388 183.48 134.062 182.596 134.062 181.493V181.288C134.062 180.55 134.204 179.891 134.486 179.312C134.773 178.729 135.174 178.276 135.689 177.952C136.204 177.629 136.779 177.467 137.412 177.467C138.419 177.467 139.196 177.788 139.743 178.431C140.295 179.073 140.57 179.982 140.57 181.158V181.828H135.737C135.787 182.439 135.99 182.922 136.346 183.277C136.706 183.633 137.157 183.811 137.699 183.811C138.46 183.811 139.08 183.503 139.559 182.888L140.454 183.742C140.158 184.184 139.761 184.528 139.265 184.774C138.772 185.016 138.219 185.137 137.604 185.137ZM137.405 178.8C136.95 178.8 136.58 178.959 136.298 179.278C136.02 179.597 135.842 180.042 135.765 180.611H138.93V180.488C138.893 179.932 138.745 179.513 138.485 179.23C138.226 178.943 137.866 178.8 137.405 178.8ZM143.947 175.806V177.604H145.253V178.834H143.947V182.963C143.947 183.245 144.002 183.451 144.111 183.578C144.225 183.701 144.426 183.763 144.713 183.763C144.904 183.763 145.098 183.74 145.294 183.694V184.979C144.916 185.084 144.551 185.137 144.2 185.137C142.924 185.137 142.286 184.433 142.286 183.024V178.834H141.069V177.604H142.286V175.806H143.947ZM151.774 182.067H150.346L150.188 175.047H151.938L151.774 182.067ZM150.141 184.214C150.141 183.954 150.225 183.74 150.394 183.571C150.562 183.398 150.792 183.312 151.084 183.312C151.376 183.312 151.606 183.398 151.774 183.571C151.943 183.74 152.027 183.954 152.027 184.214C152.027 184.465 151.945 184.674 151.781 184.843C151.617 185.011 151.385 185.096 151.084 185.096C150.783 185.096 150.551 185.011 150.387 184.843C150.223 184.674 150.141 184.465 150.141 184.214Z" fill="#344359"/>
<path d="M138.286 161.563H50V59.0293L63.3393 44.238H138.286V161.563Z" fill="url(#paint0_linear)"/>
<path d="M136.923 158.444H51.5605V59.8294L64.4572 45.6011H136.923V158.444Z" fill="#FAFAFA"/>
<path d="M65.7871 45.6011V61.1924H51.5605V59.8294L64.4223 45.6011H65.7871Z" fill="url(#paint1_linear)"/>
<path d="M51.5254 59.8294L64.422 45.6011V59.8294H51.5254Z" fill="#EEEEEE"/>
<path d="M94.0112 114.268C97.1311 114.256 100.119 113.011 102.323 110.807C104.527 108.603 105.768 105.618 105.774 102.504V76.7198C105.774 73.6062 104.535 70.6201 102.329 68.4185C100.123 66.2168 97.1309 64.98 94.0112 64.98C90.8915 64.98 87.8996 66.2168 85.6936 68.4185C83.4876 70.6201 82.2483 73.6062 82.2483 76.7198V102.504C82.2546 105.618 83.4952 108.603 85.6991 110.807C87.903 113.011 90.8912 114.256 94.0112 114.268ZM114.798 101.355C114.798 113.119 104.795 121.356 94.0112 121.356C83.2271 121.356 73.2248 113.113 73.2248 101.355H66.5586C66.5586 114.691 77.1457 125.871 90.0902 127.634V141.673H97.9321V127.628C110.877 125.668 121.464 114.685 121.464 101.355H114.798Z" fill="#344359"/>
<path d="M166 152.326H77.7139V49.793L91.0515 35H166V152.326Z" fill="url(#paint2_linear)"/>
<path d="M164.634 149.208H79.2715V50.5913L92.1698 36.3647H164.634V149.208Z" fill="white"/>
<path d="M93.4998 36.3647V51.9561H79.2715V50.5913L92.135 36.3647H93.4998Z" fill="url(#paint3_linear)"/>
<path d="M79.2373 50.5913L92.1357 36.3647V50.5913H79.2373Z" fill="#EEEEEE"/>
<path d="M121.713 105.03C124.833 105.018 127.822 103.773 130.025 101.569C132.229 99.3652 133.47 96.3803 133.476 93.2665V67.4818C133.476 64.3682 132.237 61.3821 130.031 59.1805C127.825 56.9788 124.833 55.7419 121.713 55.7419C118.594 55.7419 115.602 56.9788 113.396 59.1805C111.19 61.3821 109.95 64.3682 109.95 67.4818V93.2665C109.957 96.3803 111.197 99.3652 113.401 101.569C115.605 103.773 118.593 105.018 121.713 105.03ZM142.5 92.1169C142.5 103.881 132.497 112.118 121.713 112.118C110.929 112.118 100.927 103.875 100.927 92.1169H94.2607C94.2607 105.453 104.848 116.633 117.792 118.396V132.435H125.634V118.39C138.579 116.43 149.166 105.447 149.166 92.1169H142.5Z" fill="#344359"/>
</g>
<defs>
<linearGradient id="paint0_linear" x1="36130.6" y1="84788.9" x2="36130.6" y2="5816.6" gradientUnits="userSpaceOnUse">
<stop offset="0.01" stop-color="#808080" stop-opacity="0.25"/>
<stop offset="0.54" stop-color="#808080" stop-opacity="0.12"/>
<stop offset="1" stop-color="#808080" stop-opacity="0.1"/>
</linearGradient>
<linearGradient id="paint1_linear" x1="2970.56" y1="2329.42" x2="2970.56" y2="934.619" gradientUnits="userSpaceOnUse">
<stop stop-color="#B3B3B3" stop-opacity="0.25"/>
<stop offset="0.54" stop-color="#B3B3B3" stop-opacity="0.1"/>
<stop offset="1" stop-color="#B3B3B3" stop-opacity="0.05"/>
</linearGradient>
<linearGradient id="paint2_linear" x1="49583.1" y1="79009.7" x2="49583.1" y2="35" gradientUnits="userSpaceOnUse">
<stop offset="0.01" stop-color="#808080" stop-opacity="0.25"/>
<stop offset="0.54" stop-color="#808080" stop-opacity="0.12"/>
<stop offset="1" stop-color="#808080" stop-opacity="0.1"/>
</linearGradient>
<linearGradient id="paint3_linear" x1="5162.19" y1="1553.09" x2="5162.19" y2="158.445" gradientUnits="userSpaceOnUse">
<stop stop-color="#B3B3B3" stop-opacity="0.25"/>
<stop offset="0.54" stop-color="#B3B3B3" stop-opacity="0.1"/>
<stop offset="1" stop-color="#B3B3B3" stop-opacity="0.05"/>
</linearGradient>
</defs>
</svg>
