<svg width="352" height="350" viewBox="0 0 352 350" fill="none" xmlns="http://www.w3.org/2000/svg">
<g opacity="0.5">
<path opacity="0.5" d="M253.111 17H252.178V22.2906H253.111V17Z" fill="black"/>
<path opacity="0.5" d="M255.289 20.1121V19.1785H250V20.1121H255.289Z" fill="black"/>
</g>
<g opacity="0.5">
<path opacity="0.5" d="M135.111 180H134.178V185.291H135.111V180Z" fill="black"/>
<path opacity="0.5" d="M137.289 183.112V182.178H132V183.112H137.289Z" fill="black"/>
</g>
<g opacity="0.5">
<path opacity="0.5" d="M325.111 260H324.178V265.291H325.111V260Z" fill="black"/>
<path opacity="0.5" d="M327.289 263.112V262.178H322V263.112H327.289Z" fill="black"/>
</g>
<g opacity="0.5">
<path opacity="0.5" d="M3.11109 163H2.17773V168.291H3.11109V163Z" fill="black"/>
<path opacity="0.5" d="M5.28906 166.112V165.178H2.67029e-05V166.112H5.28906Z" fill="black"/>
</g>
<g opacity="0.5">
<path opacity="0.5" d="M225.111 266H224.178V271.291H225.111V266Z" fill="#F1F51E"/>
<path opacity="0.5" d="M227.289 269.112V268.178H222V269.112H227.289Z" fill="#F1F51E"/>
</g>
<g opacity="0.5">
<path opacity="0.5" d="M246.111 153H245.178V158.291H246.111V153Z" fill="#F1F51E"/>
<path opacity="0.5" d="M248.289 156.112V155.178H243V156.112H248.289Z" fill="#F1F51E"/>
</g>
<g opacity="0.5">
<path opacity="0.5" d="M288.111 170H287.178V175.291H288.111V170Z" fill="black"/>
<path opacity="0.5" d="M290.289 173.112V172.178H285V173.112H290.289Z" fill="black"/>
</g>
<g opacity="0.5">
<path opacity="0.5" d="M18.1111 105H17.1777V110.291H18.1111V105Z" fill="#F1F51E"/>
<path opacity="0.5" d="M20.2891 108.112V107.178H15V108.112H20.2891Z" fill="#F1F51E"/>
</g>
<g opacity="0.5">
<path opacity="0.5" d="M19.1111 242H18.1777V247.291H19.1111V242Z" fill="#F1F51E"/>
<path opacity="0.5" d="M21.2891 245.112V244.178H16V245.112H21.2891Z" fill="#F1F51E"/>
</g>
<g opacity="0.5">
<path opacity="0.5" d="M120.111 334H119.178V339.291H120.111V334Z" fill="#F1F51E"/>
<path opacity="0.5" d="M122.289 337.112V336.178H117V337.112H122.289Z" fill="#F1F51E"/>
</g>
<g opacity="0.5">
<path opacity="0.5" d="M264.633 246.025H263.699V251.315H264.633V246.025Z" fill="#47E6B1"/>
<path opacity="0.5" d="M266.811 249.137V248.203H261.522V249.137H266.811Z" fill="#47E6B1"/>
</g>
<g opacity="0.5">
<path opacity="0.5" d="M181.111 31H180.178V36.2906H181.111V31Z" fill="white"/>
<path opacity="0.5" d="M183.289 34.1121V33.1785H178V34.1121H183.289Z" fill="white"/>
</g>
<g opacity="0.5">
<path opacity="0.5" d="M343.111 128H342.178V133.291H343.111V128Z" fill="white"/>
<path opacity="0.5" d="M345.289 131.112V130.178H340V131.112H345.289Z" fill="white"/>
</g>
<g opacity="0.5">
<path opacity="0.5" d="M48.1111 149H47.1777V154.291H48.1111V149Z" fill="white"/>
<path opacity="0.5" d="M50.2891 152.112V151.178H45V152.112H50.2891Z" fill="white"/>
</g>
<g opacity="0.5">
<path opacity="0.5" d="M156.111 343H155.178V348.291H156.111V343Z" fill="white"/>
<path opacity="0.5" d="M158.289 346.112V345.178H153V346.112H158.289Z" fill="white"/>
</g>
<path opacity="0.5" d="M159.808 327.119C159.553 327.004 159.349 326.801 159.234 326.546C159.12 326.291 159.102 326.004 159.185 325.737C159.199 325.696 159.207 325.653 159.21 325.609C159.218 325.486 159.186 325.364 159.119 325.26C159.052 325.157 158.953 325.078 158.837 325.035C158.721 324.993 158.595 324.989 158.476 325.024C158.358 325.059 158.254 325.131 158.18 325.23C158.155 325.265 158.135 325.302 158.118 325.342C158.004 325.597 157.8 325.801 157.546 325.915C157.291 326.03 157.003 326.047 156.737 325.964C156.695 325.951 156.653 325.943 156.609 325.939C156.486 325.931 156.364 325.963 156.26 326.031C156.157 326.098 156.078 326.197 156.035 326.313C155.993 326.429 155.989 326.555 156.024 326.673C156.059 326.792 156.131 326.896 156.23 326.969C156.265 326.995 156.302 327.015 156.342 327.032C156.596 327.146 156.8 327.35 156.915 327.605C157.03 327.859 157.047 328.147 156.964 328.413C156.951 328.455 156.942 328.498 156.939 328.541C156.931 328.664 156.963 328.787 157.03 328.89C157.098 328.994 157.197 329.073 157.312 329.115C157.428 329.158 157.555 329.162 157.673 329.127C157.791 329.092 157.895 329.02 157.969 328.921C157.994 328.886 158.015 328.848 158.031 328.809C158.145 328.554 158.349 328.35 158.604 328.235C158.858 328.121 159.146 328.103 159.412 328.186C159.454 328.2 159.497 328.208 159.54 328.211C159.663 328.219 159.786 328.187 159.889 328.12C159.992 328.053 160.071 327.954 160.114 327.838C160.157 327.722 160.161 327.596 160.126 327.477C160.091 327.359 160.018 327.255 159.92 327.181C159.885 327.156 159.847 327.135 159.808 327.119Z" fill="#4D8AF0"/>
<path opacity="0.5" d="M66.8076 306.119C66.553 306.004 66.349 305.801 66.2344 305.546C66.1197 305.291 66.1023 305.004 66.1854 304.737C66.1987 304.696 66.207 304.653 66.2103 304.609C66.2182 304.486 66.1862 304.364 66.1189 304.26C66.0516 304.157 65.9527 304.078 65.837 304.035C65.7212 303.993 65.5948 303.989 65.4764 304.024C65.3581 304.059 65.2543 304.131 65.1805 304.23C65.1554 304.265 65.1345 304.302 65.1182 304.342C65.0039 304.597 64.8001 304.801 64.5456 304.915C64.2911 305.03 64.0034 305.047 63.7369 304.964C63.6955 304.951 63.6527 304.943 63.6093 304.939C63.4862 304.931 63.3638 304.963 63.2604 305.031C63.1569 305.098 63.078 305.197 63.0353 305.313C62.9927 305.429 62.9885 305.555 63.0236 305.673C63.0586 305.792 63.1309 305.896 63.2297 305.969C63.2645 305.995 63.3021 306.015 63.3417 306.032C63.5964 306.146 63.8003 306.35 63.915 306.605C64.0296 306.859 64.0471 307.147 63.964 307.413C63.9507 307.455 63.9423 307.498 63.9391 307.541C63.9261 307.666 63.9548 307.793 64.0207 307.9C64.0867 308.007 64.1863 308.09 64.304 308.135C64.4217 308.18 64.5509 308.185 64.6717 308.149C64.7925 308.113 64.8981 308.038 64.972 307.936C64.997 307.902 65.0179 307.864 65.0342 307.824C65.1486 307.57 65.3523 307.366 65.6068 307.251C65.8614 307.136 66.1491 307.119 66.4156 307.202C66.457 307.215 66.4998 307.224 66.5432 307.227C66.6663 307.235 66.7887 307.203 66.8921 307.135C66.9955 307.068 67.0745 306.969 67.1171 306.853C67.1598 306.738 67.1639 306.611 67.1289 306.493C67.0939 306.374 67.0216 306.271 66.9227 306.197C66.8878 306.166 66.8491 306.14 66.8076 306.119Z" fill="white" fill-opacity="0.7"/>
<path opacity="0.5" d="M83.8076 240.119C83.553 240.004 83.349 239.801 83.2344 239.546C83.1197 239.291 83.1023 239.004 83.1854 238.737C83.1987 238.696 83.207 238.653 83.2103 238.609C83.2182 238.486 83.1862 238.364 83.1189 238.26C83.0516 238.157 82.9527 238.078 82.837 238.035C82.7212 237.993 82.5948 237.989 82.4765 238.024C82.3581 238.059 82.2543 238.131 82.1805 238.23C82.1554 238.265 82.1346 238.302 82.1182 238.342C82.0039 238.597 81.8001 238.801 81.5456 238.915C81.2911 239.03 81.0034 239.047 80.7369 238.964C80.6955 238.951 80.6527 238.943 80.6093 238.939C80.4862 238.931 80.3638 238.963 80.2604 239.031C80.1569 239.098 80.078 239.197 80.0353 239.313C79.9927 239.429 79.9885 239.555 80.0236 239.673C80.0586 239.792 80.1309 239.896 80.2297 239.969C80.2645 239.995 80.3021 240.015 80.3417 240.032C80.5964 240.146 80.8003 240.35 80.915 240.604C81.0296 240.859 81.0471 241.147 80.964 241.413C80.9507 241.455 80.9423 241.498 80.9391 241.541C80.9261 241.666 80.9548 241.793 81.0207 241.9C81.0867 242.007 81.1863 242.09 81.304 242.135C81.4217 242.18 81.5509 242.185 81.6717 242.149C81.7925 242.113 81.8981 242.038 81.972 241.936C81.997 241.902 82.0179 241.864 82.0342 241.824C82.1486 241.57 82.3523 241.366 82.6069 241.251C82.8614 241.136 83.1491 241.119 83.4156 241.202C83.457 241.215 83.4998 241.224 83.5432 241.227C83.6663 241.235 83.7887 241.203 83.8921 241.135C83.9955 241.068 84.0745 240.969 84.1172 240.853C84.1598 240.738 84.1639 240.611 84.1289 240.493C84.0939 240.374 84.0216 240.271 83.9227 240.197C83.8878 240.166 83.8491 240.14 83.8076 240.119Z" fill="#4D8AF0"/>
<path opacity="0.5" d="M8.80762 211.119C8.55297 211.004 8.34904 210.801 8.23439 210.546C8.11974 210.291 8.1023 210.004 8.18538 209.737C8.19868 209.696 8.20704 209.653 8.21027 209.609C8.21821 209.486 8.18616 209.364 8.1189 209.26C8.05163 209.157 7.95274 209.078 7.83697 209.035C7.7212 208.993 7.59475 208.989 7.47645 209.024C7.35815 209.059 7.25433 209.131 7.18047 209.23C7.15544 209.265 7.13455 209.302 7.11824 209.342C7.00386 209.597 6.80015 209.801 6.54562 209.915C6.29109 210.03 6.00338 210.047 5.73686 209.964C5.69548 209.951 5.65266 209.943 5.6093 209.939C5.48618 209.931 5.36379 209.963 5.26036 210.031C5.15693 210.098 5.07799 210.197 5.03533 210.313C4.99266 210.429 4.98853 210.555 5.02356 210.673C5.05859 210.792 5.13091 210.896 5.22974 210.969C5.26452 210.995 5.30212 211.015 5.34175 211.032C5.5964 211.146 5.80032 211.35 5.91497 211.604C6.02963 211.859 6.04706 212.147 5.96399 212.413C5.95068 212.455 5.94232 212.498 5.93909 212.541C5.92606 212.666 5.95476 212.793 6.02073 212.9C6.08669 213.007 6.18626 213.09 6.30396 213.135C6.42166 213.18 6.55093 213.185 6.67171 213.149C6.7925 213.113 6.89806 213.038 6.97201 212.936C6.99704 212.902 7.01793 212.864 7.03424 212.824C7.14862 212.57 7.35232 212.366 7.60685 212.251C7.86138 212.136 8.1491 212.119 8.41561 212.202C8.457 212.215 8.49981 212.224 8.54316 212.227C8.66629 212.235 8.78869 212.203 8.89212 212.135C8.99555 212.068 9.07448 211.969 9.11715 211.853C9.15982 211.738 9.16394 211.611 9.12891 211.493C9.09387 211.374 9.02156 211.271 8.92273 211.197C8.8878 211.166 8.84912 211.14 8.80762 211.119Z" fill="#4D8AF0"/>
<path opacity="0.5" d="M189.808 2.11886C189.553 2.00445 189.349 1.80067 189.234 1.54607C189.12 1.29147 189.102 1.00367 189.185 0.737084C189.199 0.695684 189.207 0.652843 189.21 0.609477C189.218 0.486316 189.186 0.36389 189.119 0.260429C189.052 0.156968 188.953 0.0780228 188.837 0.0353408C188.721 -0.00734115 188.595 -0.0114794 188.476 0.0235641C188.358 0.0586075 188.254 0.130954 188.18 0.229809C188.155 0.264606 188.135 0.302201 188.118 0.341841C188.004 0.596566 187.8 0.80055 187.546 0.915236C187.291 1.02992 187.003 1.04736 186.737 0.964261C186.695 0.950955 186.653 0.942593 186.609 0.939359C186.486 0.931416 186.364 0.963475 186.26 1.03076C186.157 1.09805 186.078 1.19698 186.035 1.31278C185.993 1.42858 185.989 1.55506 186.024 1.67339C186.059 1.79173 186.131 1.89558 186.23 1.96947C186.265 1.9945 186.302 2.01539 186.342 2.03171C186.596 2.14612 186.8 2.3499 186.915 2.6045C187.03 2.8591 187.047 3.1469 186.964 3.41349C186.951 3.45489 186.942 3.49773 186.939 3.54109C186.926 3.66647 186.955 3.79263 187.021 3.90004C187.087 4.00744 187.186 4.09008 187.304 4.13512C187.422 4.18015 187.551 4.18508 187.672 4.14914C187.793 4.11319 187.898 4.03839 187.972 3.93632C187.997 3.90152 188.018 3.86393 188.034 3.82429C188.149 3.56956 188.352 3.36558 188.607 3.25089C188.861 3.1362 189.149 3.11876 189.416 3.20187C189.457 3.21517 189.5 3.22353 189.543 3.22677C189.666 3.23471 189.789 3.20265 189.892 3.13536C189.996 3.06808 190.074 2.96915 190.117 2.85335C190.16 2.73755 190.164 2.61107 190.129 2.49273C190.094 2.3744 190.022 2.27055 189.923 2.19666C189.888 2.16597 189.849 2.13983 189.808 2.11886Z" fill="#4D8AF0"/>
<path opacity="0.5" d="M39.8076 72.1189C39.553 72.0044 39.349 71.8007 39.2344 71.5461C39.1197 71.2915 39.1023 71.0037 39.1854 70.7371C39.1987 70.6957 39.207 70.6528 39.2103 70.6095C39.2182 70.4863 39.1862 70.3639 39.1189 70.2604C39.0516 70.157 38.9527 70.078 38.837 70.0353C38.7212 69.9927 38.5948 69.9885 38.4765 70.0236C38.3581 70.0586 38.2543 70.131 38.1805 70.2298C38.1554 70.2646 38.1346 70.3022 38.1182 70.3418C38.0039 70.5966 37.8001 70.8005 37.5456 70.9152C37.2911 71.0299 37.0034 71.0474 36.7369 70.9643C36.6955 70.951 36.6527 70.9426 36.6093 70.9394C36.4862 70.9314 36.3638 70.9635 36.2604 71.0308C36.1569 71.098 36.078 71.197 36.0353 71.3128C35.9927 71.4286 35.9885 71.5551 36.0236 71.6734C36.0586 71.7917 36.1309 71.8956 36.2297 71.9695C36.2645 71.9945 36.3021 72.0154 36.3417 72.0317C36.5964 72.1461 36.8003 72.3499 36.915 72.6045C37.0296 72.8591 37.0471 73.1469 36.964 73.4135C36.9507 73.4549 36.9423 73.4977 36.9391 73.5411C36.9261 73.6665 36.9548 73.7926 37.0207 73.9C37.0867 74.0074 37.1863 74.0901 37.304 74.1351C37.4217 74.1802 37.5509 74.1851 37.6717 74.1491C37.7925 74.1132 37.8981 74.0384 37.972 73.9363C37.997 73.9015 38.0179 73.8639 38.0342 73.8243C38.1486 73.5696 38.3523 73.3656 38.6069 73.2509C38.8614 73.1362 39.1491 73.1188 39.4156 73.2019C39.457 73.2152 39.4998 73.2235 39.5432 73.2268C39.6663 73.2347 39.7887 73.2027 39.8921 73.1354C39.9955 73.0681 40.0745 72.9692 40.1172 72.8533C40.1598 72.7375 40.1639 72.6111 40.1289 72.4927C40.0939 72.3744 40.0216 72.2705 39.9227 72.1967C39.8878 72.166 39.8491 72.1398 39.8076 72.1189Z" fill="#27AE60"/>
<path opacity="0.5" d="M305.808 291.119C305.553 291.004 305.349 290.801 305.234 290.546C305.12 290.291 305.102 290.004 305.185 289.737C305.199 289.696 305.207 289.653 305.21 289.609V289.609C305.218 289.486 305.186 289.364 305.119 289.26C305.052 289.157 304.953 289.078 304.837 289.035C304.721 288.993 304.595 288.989 304.476 289.024C304.358 289.059 304.254 289.131 304.18 289.23V289.23C304.155 289.265 304.135 289.302 304.118 289.342C304.004 289.597 303.8 289.801 303.546 289.915C303.291 290.03 303.003 290.047 302.737 289.964C302.695 289.951 302.653 289.943 302.609 289.939V289.939C302.486 289.931 302.364 289.963 302.26 290.031C302.157 290.098 302.078 290.197 302.035 290.313C301.993 290.429 301.989 290.555 302.024 290.673C302.059 290.792 302.131 290.896 302.23 290.969C302.265 290.995 302.302 291.015 302.342 291.032C302.596 291.146 302.8 291.35 302.915 291.604C303.03 291.859 303.047 292.147 302.964 292.413C302.951 292.455 302.942 292.498 302.939 292.541V292.541C302.926 292.666 302.955 292.793 303.021 292.9C303.087 293.007 303.186 293.09 303.304 293.135C303.422 293.18 303.551 293.185 303.672 293.149C303.793 293.113 303.898 293.038 303.972 292.936V292.936C303.997 292.902 304.018 292.864 304.034 292.824C304.149 292.57 304.352 292.366 304.607 292.251C304.861 292.136 305.149 292.119 305.416 292.202C305.457 292.215 305.5 292.224 305.543 292.227V292.227C305.666 292.235 305.789 292.203 305.892 292.135C305.996 292.068 306.074 291.969 306.117 291.853C306.16 291.738 306.164 291.611 306.129 291.493C306.094 291.374 306.022 291.271 305.923 291.197V291.197C305.888 291.166 305.849 291.14 305.808 291.119V291.119Z" fill="#27AE60"/>
<path opacity="0.5" d="M248.808 201.119C248.553 201.004 248.349 200.801 248.234 200.546C248.12 200.291 248.102 200.004 248.185 199.737C248.199 199.696 248.207 199.653 248.21 199.609V199.609C248.218 199.486 248.186 199.364 248.119 199.26C248.052 199.157 247.953 199.078 247.837 199.035C247.721 198.993 247.595 198.989 247.476 199.024C247.358 199.059 247.254 199.131 247.18 199.23V199.23C247.155 199.265 247.135 199.302 247.118 199.342C247.004 199.597 246.8 199.801 246.546 199.915C246.291 200.03 246.003 200.047 245.737 199.964C245.695 199.951 245.653 199.943 245.609 199.939V199.939C245.486 199.931 245.364 199.963 245.26 200.031C245.157 200.098 245.078 200.197 245.035 200.313C244.993 200.429 244.989 200.555 245.024 200.673C245.059 200.792 245.131 200.896 245.23 200.969C245.265 200.995 245.302 201.015 245.342 201.032C245.596 201.146 245.8 201.35 245.915 201.604C246.03 201.859 246.047 202.147 245.964 202.413C245.951 202.455 245.942 202.498 245.939 202.541V202.541C245.926 202.666 245.955 202.793 246.021 202.9C246.087 203.007 246.186 203.09 246.304 203.135C246.422 203.18 246.551 203.185 246.672 203.149C246.793 203.113 246.898 203.038 246.972 202.936V202.936C246.997 202.902 247.018 202.864 247.034 202.824C247.149 202.57 247.352 202.366 247.607 202.251C247.861 202.136 248.149 202.119 248.416 202.202C248.457 202.215 248.5 202.224 248.543 202.227V202.227C248.666 202.235 248.789 202.203 248.892 202.135C248.996 202.068 249.074 201.969 249.117 201.853C249.16 201.738 249.164 201.611 249.129 201.493C249.094 201.374 249.022 201.271 248.923 201.197V201.197C248.888 201.166 248.849 201.14 248.808 201.119V201.119Z" fill="#27AE60"/>
<path opacity="0.5" d="M307.808 119.119C307.553 119.004 307.349 118.801 307.234 118.546C307.12 118.291 307.102 118.004 307.185 117.737C307.199 117.696 307.207 117.653 307.21 117.609C307.218 117.486 307.186 117.364 307.119 117.26C307.052 117.157 306.953 117.078 306.837 117.035C306.721 116.993 306.595 116.989 306.476 117.024C306.358 117.059 306.254 117.131 306.18 117.23C306.155 117.265 306.135 117.302 306.118 117.342C306.004 117.597 305.8 117.801 305.546 117.915C305.291 118.03 305.003 118.047 304.737 117.964C304.695 117.951 304.653 117.943 304.609 117.939C304.486 117.931 304.364 117.963 304.26 118.031C304.157 118.098 304.078 118.197 304.035 118.313C303.993 118.429 303.989 118.555 304.024 118.673C304.059 118.792 304.131 118.896 304.23 118.969C304.265 118.995 304.302 119.015 304.342 119.032C304.596 119.146 304.8 119.35 304.915 119.604C305.03 119.859 305.047 120.147 304.964 120.413C304.951 120.455 304.942 120.498 304.939 120.541C304.926 120.666 304.955 120.793 305.021 120.9C305.087 121.007 305.186 121.09 305.304 121.135C305.422 121.18 305.551 121.185 305.672 121.149C305.793 121.113 305.898 121.038 305.972 120.936C305.997 120.902 306.018 120.864 306.034 120.824C306.149 120.57 306.352 120.366 306.607 120.251C306.861 120.136 307.149 120.119 307.416 120.202C307.457 120.215 307.5 120.224 307.543 120.227C307.666 120.235 307.789 120.203 307.892 120.135C307.996 120.068 308.074 119.969 308.117 119.853C308.16 119.738 308.164 119.611 308.129 119.493C308.094 119.374 308.022 119.271 307.923 119.197C307.888 119.166 307.849 119.14 307.808 119.119Z" fill="#4D8AF0"/>
<path opacity="0.5" d="M296.808 49.1189C296.553 49.0044 296.349 48.8007 296.234 48.5461C296.12 48.2915 296.102 48.0037 296.185 47.7371C296.199 47.6957 296.207 47.6528 296.21 47.6095V47.6095C296.218 47.4863 296.186 47.3639 296.119 47.2604C296.052 47.157 295.953 47.078 295.837 47.0353C295.721 46.9927 295.595 46.9885 295.476 47.0236C295.358 47.0586 295.254 47.131 295.18 47.2298V47.2298C295.155 47.2646 295.135 47.3022 295.118 47.3418C295.004 47.5966 294.8 47.8005 294.546 47.9152C294.291 48.0299 294.003 48.0474 293.737 47.9643C293.695 47.951 293.653 47.9426 293.609 47.9394V47.9394C293.486 47.9314 293.364 47.9635 293.26 48.0308C293.157 48.098 293.078 48.197 293.035 48.3128C292.993 48.4286 292.989 48.5551 293.024 48.6734C293.059 48.7917 293.131 48.8956 293.23 48.9695C293.265 48.9945 293.302 49.0154 293.342 49.0317C293.596 49.1461 293.8 49.3499 293.915 49.6045C294.03 49.8591 294.047 50.1469 293.964 50.4135C293.951 50.4549 293.942 50.4977 293.939 50.5411V50.5411C293.926 50.6665 293.955 50.7926 294.021 50.9C294.087 51.0074 294.186 51.0901 294.304 51.1351C294.422 51.1802 294.551 51.1851 294.672 51.1491C294.793 51.1132 294.898 51.0384 294.972 50.9363V50.9363C294.997 50.9015 295.018 50.8639 295.034 50.8243C295.149 50.5696 295.352 50.3656 295.607 50.2509C295.861 50.1362 296.149 50.1188 296.416 50.2019C296.457 50.2152 296.5 50.2235 296.543 50.2268V50.2268C296.666 50.2347 296.789 50.2027 296.892 50.1354C296.996 50.0681 297.074 49.9692 297.117 49.8533C297.16 49.7375 297.164 49.6111 297.129 49.4927C297.094 49.3744 297.022 49.2705 296.923 49.1967V49.1967C296.888 49.166 296.849 49.1398 296.808 49.1189V49.1189Z" fill="#4D8AF0"/>
<path opacity="0.5" d="M236.808 38.1189C236.553 38.0044 236.349 37.8007 236.234 37.5461C236.12 37.2915 236.102 37.0037 236.185 36.7371C236.199 36.6957 236.207 36.6528 236.21 36.6095V36.6095C236.218 36.4863 236.186 36.3639 236.119 36.2604C236.052 36.157 235.953 36.078 235.837 36.0353C235.721 35.9927 235.595 35.9885 235.476 36.0236C235.358 36.0586 235.254 36.131 235.18 36.2298V36.2298C235.155 36.2646 235.135 36.3022 235.118 36.3418C235.004 36.5966 234.8 36.8005 234.546 36.9152C234.291 37.0299 234.003 37.0474 233.737 36.9643C233.695 36.951 233.653 36.9426 233.609 36.9394V36.9394C233.486 36.9314 233.364 36.9635 233.26 37.0308C233.157 37.098 233.078 37.197 233.035 37.3128C232.993 37.4286 232.989 37.5551 233.024 37.6734C233.059 37.7917 233.131 37.8956 233.23 37.9695C233.265 37.9945 233.302 38.0154 233.342 38.0317C233.596 38.1461 233.8 38.3499 233.915 38.6045C234.03 38.8591 234.047 39.1469 233.964 39.4135C233.951 39.4549 233.942 39.4977 233.939 39.5411V39.5411C233.926 39.6665 233.955 39.7926 234.021 39.9C234.087 40.0074 234.186 40.0901 234.304 40.1351C234.422 40.1802 234.551 40.1851 234.672 40.1491C234.793 40.1132 234.898 40.0384 234.972 39.9363V39.9363C234.997 39.9015 235.018 39.8639 235.034 39.8243C235.149 39.5696 235.352 39.3656 235.607 39.2509C235.861 39.1362 236.149 39.1188 236.416 39.2019C236.457 39.2152 236.5 39.2235 236.543 39.2268V39.2268C236.666 39.2347 236.789 39.2027 236.892 39.1354C236.996 39.0681 237.074 38.9692 237.117 38.8533C237.16 38.7375 237.164 38.6111 237.129 38.4927C237.094 38.3744 237.022 38.2705 236.923 38.1967V38.1967C236.888 38.166 236.849 38.1398 236.808 38.1189V38.1189Z" fill="#4D8AF0"/>
<path opacity="0.5" d="M348.808 207.119C348.553 207.004 348.349 206.801 348.234 206.546C348.12 206.291 348.102 206.004 348.185 205.737C348.199 205.696 348.207 205.653 348.21 205.609V205.609C348.218 205.486 348.186 205.364 348.119 205.26C348.052 205.157 347.953 205.078 347.837 205.035C347.721 204.993 347.595 204.989 347.476 205.024C347.358 205.059 347.254 205.131 347.18 205.23V205.23C347.155 205.265 347.135 205.302 347.118 205.342C347.004 205.597 346.8 205.801 346.546 205.915C346.291 206.03 346.003 206.047 345.737 205.964C345.695 205.951 345.653 205.943 345.609 205.939V205.939C345.486 205.931 345.364 205.963 345.26 206.031C345.157 206.098 345.078 206.197 345.035 206.313C344.993 206.429 344.989 206.555 345.024 206.673C345.059 206.792 345.131 206.896 345.23 206.969C345.265 206.995 345.302 207.015 345.342 207.032C345.596 207.146 345.8 207.35 345.915 207.604C346.03 207.859 346.047 208.147 345.964 208.413C345.951 208.455 345.942 208.498 345.939 208.541V208.541C345.926 208.666 345.955 208.793 346.021 208.9C346.087 209.007 346.186 209.09 346.304 209.135C346.422 209.18 346.551 209.185 346.672 209.149C346.793 209.113 346.898 209.038 346.972 208.936V208.936C346.997 208.902 347.018 208.864 347.034 208.824C347.149 208.57 347.352 208.366 347.607 208.251C347.861 208.136 348.149 208.119 348.416 208.202C348.457 208.215 348.5 208.224 348.543 208.227V208.227C348.666 208.235 348.789 208.203 348.892 208.135C348.996 208.068 349.074 207.969 349.117 207.853C349.16 207.738 349.164 207.611 349.129 207.493C349.094 207.374 349.022 207.271 348.923 207.197V207.197C348.888 207.166 348.849 207.14 348.808 207.119V207.119Z" fill="#4D8AF0"/>
<path opacity="0.5" d="M313.808 216.119C313.553 216.004 313.349 215.801 313.234 215.546C313.12 215.291 313.102 215.004 313.185 214.737C313.199 214.696 313.207 214.653 313.21 214.609C313.218 214.486 313.186 214.364 313.119 214.26C313.052 214.157 312.953 214.078 312.837 214.035C312.721 213.993 312.595 213.989 312.476 214.024C312.358 214.059 312.254 214.131 312.18 214.23C312.155 214.265 312.135 214.302 312.118 214.342C312.004 214.597 311.8 214.801 311.546 214.915C311.291 215.03 311.003 215.047 310.737 214.964C310.695 214.951 310.653 214.943 310.609 214.939C310.486 214.931 310.364 214.963 310.26 215.031C310.157 215.098 310.078 215.197 310.035 215.313C309.993 215.429 309.989 215.555 310.024 215.673C310.059 215.792 310.131 215.896 310.23 215.969C310.265 215.995 310.302 216.015 310.342 216.032C310.596 216.146 310.8 216.35 310.915 216.605C311.03 216.859 311.047 217.147 310.964 217.414C310.951 217.455 310.942 217.498 310.939 217.541C310.926 217.667 310.955 217.793 311.021 217.9C311.087 218.007 311.186 218.09 311.304 218.135C311.422 218.18 311.551 218.185 311.672 218.149C311.792 218.113 311.898 218.038 311.972 217.936C311.997 217.902 312.018 217.864 312.034 217.824C312.149 217.57 312.352 217.366 312.607 217.251C312.861 217.136 313.149 217.119 313.416 217.202C313.457 217.215 313.5 217.224 313.543 217.227C313.666 217.235 313.789 217.203 313.892 217.135C313.996 217.068 314.074 216.969 314.117 216.853C314.16 216.738 314.164 216.611 314.129 216.493C314.094 216.374 314.022 216.271 313.923 216.197C313.888 216.166 313.849 216.14 313.808 216.119Z" fill="#4D8AF0"/>
<path opacity="0.5" d="M89.8076 323.119C89.553 323.004 89.349 322.801 89.2344 322.546C89.1197 322.291 89.1023 322.004 89.1854 321.737C89.1987 321.696 89.207 321.653 89.2102 321.609V321.609C89.2182 321.486 89.1861 321.364 89.1189 321.26C89.0516 321.157 88.9527 321.078 88.837 321.035C88.7212 320.993 88.5947 320.989 88.4764 321.024C88.3581 321.059 88.2543 321.131 88.1804 321.23V321.23C88.1554 321.265 88.1345 321.302 88.1182 321.342C88.0038 321.597 87.8001 321.801 87.5456 321.915C87.2911 322.03 87.0034 322.047 86.7369 321.964C86.6955 321.951 86.6527 321.943 86.6093 321.939C86.4862 321.931 86.3638 321.963 86.2604 322.031C86.1569 322.098 86.078 322.197 86.0353 322.313C85.9927 322.429 85.9885 322.555 86.0236 322.673C86.0586 322.792 86.1309 322.896 86.2297 322.969C86.2645 322.995 86.3021 323.015 86.3417 323.032C86.5964 323.146 86.8003 323.35 86.915 323.605C87.0296 323.859 87.0471 324.147 86.964 324.414C86.9507 324.455 86.9423 324.498 86.9391 324.541C86.9261 324.667 86.9548 324.793 87.0207 324.9C87.0867 325.007 87.1862 325.09 87.3039 325.135C87.4216 325.18 87.5509 325.185 87.6717 325.149C87.7925 325.113 87.898 325.038 87.972 324.936C87.997 324.902 88.0179 324.864 88.0342 324.824C88.1486 324.57 88.3523 324.366 88.6068 324.251C88.8614 324.136 89.1491 324.119 89.4156 324.202C89.457 324.215 89.4998 324.224 89.5431 324.227C89.6663 324.235 89.7887 324.203 89.8921 324.135C89.9955 324.068 90.0745 323.969 90.1171 323.853C90.1598 323.738 90.1639 323.611 90.1289 323.493C90.0938 323.374 90.0215 323.271 89.9227 323.197V323.197C89.8878 323.166 89.8491 323.14 89.8076 323.119V323.119Z" fill="#4D8AF0"/>
<path opacity="0.5" d="M350.808 191.119C350.553 191.004 350.349 190.801 350.234 190.546C350.12 190.291 350.102 190.004 350.185 189.737C350.199 189.696 350.207 189.653 350.21 189.609C350.218 189.486 350.186 189.364 350.119 189.26C350.052 189.157 349.953 189.078 349.837 189.035C349.721 188.993 349.595 188.989 349.476 189.024C349.358 189.059 349.254 189.131 349.18 189.23C349.155 189.265 349.135 189.302 349.118 189.342C349.004 189.597 348.8 189.801 348.546 189.915C348.291 190.03 348.003 190.047 347.737 189.964C347.695 189.951 347.653 189.943 347.609 189.939C347.486 189.931 347.364 189.963 347.26 190.031C347.157 190.098 347.078 190.197 347.035 190.313C346.993 190.429 346.989 190.555 347.024 190.673C347.059 190.792 347.131 190.896 347.23 190.969C347.265 190.995 347.302 191.015 347.342 191.032C347.596 191.146 347.8 191.35 347.915 191.605C348.03 191.859 348.047 192.147 347.964 192.414C347.951 192.455 347.942 192.498 347.939 192.541C347.926 192.667 347.955 192.793 348.021 192.9C348.087 193.007 348.186 193.09 348.304 193.135C348.422 193.18 348.551 193.185 348.672 193.149C348.792 193.113 348.898 193.038 348.972 192.936C348.997 192.902 349.018 192.864 349.034 192.824C349.149 192.57 349.352 192.366 349.607 192.251C349.861 192.136 350.149 192.119 350.416 192.202C350.457 192.215 350.5 192.224 350.543 192.227C350.666 192.235 350.789 192.203 350.892 192.135C350.996 192.068 351.074 191.969 351.117 191.853C351.16 191.738 351.164 191.611 351.129 191.493C351.094 191.374 351.022 191.271 350.923 191.197C350.888 191.166 350.849 191.14 350.808 191.119Z" fill="white" fill-opacity="0.7"/>
<path opacity="0.5" d="M35.8667 196.735C36.8977 196.735 37.7334 195.899 37.7334 194.867C37.7334 193.836 36.8977 193 35.8667 193C34.8358 193 34 193.836 34 194.867C34 195.899 34.8358 196.735 35.8667 196.735Z" fill="#F55F44"/>
<path opacity="0.5" d="M287.867 309.735C288.898 309.735 289.733 308.899 289.733 307.867C289.733 306.836 288.898 306 287.867 306C286.836 306 286 306.836 286 307.867C286 308.899 286.836 309.735 287.867 309.735Z" fill="#F55F44"/>
<path opacity="0.5" d="M164.867 3.73452C165.898 3.73452 166.733 2.89852 166.733 1.86726C166.733 0.836001 165.898 0 164.867 0C163.836 0 163 0.836001 163 1.86726C163 2.89852 163.836 3.73452 164.867 3.73452Z" fill="#F55F44"/>
<path opacity="0.3" d="M110.867 16.7345C111.898 16.7345 112.733 15.8985 112.733 14.8673C112.733 13.836 111.898 13 110.867 13C109.836 13 109 13.836 109 14.8673C109 15.8985 109.836 16.7345 110.867 16.7345Z" fill="black"/>
<path opacity="0.5" d="M157.867 71.7345C158.898 71.7345 159.733 70.8985 159.733 69.8673C159.733 68.836 158.898 68 157.867 68C156.836 68 156 68.836 156 69.8673C156 70.8985 156.836 71.7345 157.867 71.7345Z" fill="#4D8AF0"/>
<path opacity="0.5" d="M31.8667 271.735C32.8977 271.735 33.7334 270.899 33.7334 269.867C33.7334 268.836 32.8977 268 31.8667 268C30.8358 268 30 268.836 30 269.867C30 270.899 30.8358 271.735 31.8667 271.735Z" fill="#4D8AF0"/>
<path opacity="0.5" d="M87.8667 28.7345C88.8977 28.7345 89.7334 27.8985 89.7334 26.8673C89.7334 25.836 88.8977 25 87.8667 25C86.8358 25 86 25.836 86 26.8673C86 27.8985 86.8358 28.7345 87.8667 28.7345Z" fill="#4D8AF0" fill-opacity="0.7"/>
<path opacity="0.5" d="M114.867 46.7345C115.898 46.7345 116.733 45.8985 116.733 44.8673C116.733 43.836 115.898 43 114.867 43C113.836 43 113 43.836 113 44.8673C113 45.8985 113.836 46.7345 114.867 46.7345Z" fill="#158243"/>
<path opacity="0.5" d="M7.86672 141.735C8.89768 141.735 9.73344 140.899 9.73344 139.867C9.73344 138.836 8.89768 138 7.86672 138C6.83576 138 6 138.836 6 139.867C6 140.899 6.83576 141.735 7.86672 141.735Z" fill="#0D98B9"/>
<path opacity="0.5" d="M185.867 349.735C186.898 349.735 187.733 348.899 187.733 347.867C187.733 346.836 186.898 346 185.867 346C184.836 346 184 346.836 184 347.867C184 348.899 184.836 349.735 185.867 349.735Z" fill="#158243"/>
<path opacity="0.5" d="M97.8667 290.735C98.8977 290.735 99.7334 289.899 99.7334 288.867C99.7334 287.836 98.8977 287 97.8667 287C96.8358 287 96 287.836 96 288.867C96 289.899 96.8358 290.735 97.8667 290.735Z" fill="#158243"/>
<path opacity="0.5" d="M262.867 64.7345C263.898 64.7345 264.733 63.8985 264.733 62.8673C264.733 61.836 263.898 61 262.867 61C261.836 61 261 61.836 261 62.8673C261 63.8985 261.836 64.7345 262.867 64.7345Z" fill="#158243"/>
<path opacity="0.5" d="M226.867 10.7345C227.898 10.7345 228.733 9.89854 228.733 8.86727C228.733 7.83601 227.898 7 226.867 7C225.836 7 225 7.83601 225 8.86727C225 9.89854 225.836 10.7345 226.867 10.7345Z" fill="#158243"/>
<path opacity="0.5" d="M205.808 306.119C205.553 306.004 205.349 305.801 205.234 305.546C205.12 305.291 205.102 305.004 205.185 304.737C205.199 304.696 205.207 304.653 205.21 304.609V304.609C205.218 304.486 205.186 304.364 205.119 304.26C205.052 304.157 204.953 304.078 204.837 304.035C204.721 303.993 204.595 303.989 204.476 304.024C204.358 304.059 204.254 304.131 204.18 304.23V304.23C204.155 304.265 204.135 304.302 204.118 304.342C204.004 304.597 203.8 304.801 203.546 304.915C203.291 305.03 203.003 305.047 202.737 304.964C202.695 304.951 202.653 304.943 202.609 304.939V304.939C202.486 304.931 202.364 304.963 202.26 305.031C202.157 305.098 202.078 305.197 202.035 305.313C201.993 305.429 201.989 305.555 202.024 305.673C202.059 305.792 202.131 305.896 202.23 305.969C202.265 305.995 202.302 306.015 202.342 306.032C202.596 306.146 202.8 306.35 202.915 306.604C203.03 306.859 203.047 307.147 202.964 307.413C202.951 307.455 202.942 307.498 202.939 307.541V307.541C202.926 307.666 202.955 307.793 203.021 307.9C203.087 308.007 203.186 308.09 203.304 308.135C203.422 308.18 203.551 308.185 203.672 308.149C203.793 308.113 203.898 308.038 203.972 307.936V307.936C203.997 307.902 204.018 307.864 204.034 307.824C204.149 307.57 204.352 307.366 204.607 307.251C204.861 307.136 205.149 307.119 205.416 307.202C205.457 307.215 205.5 307.224 205.543 307.227V307.227C205.666 307.235 205.789 307.203 205.892 307.135C205.996 307.068 206.074 306.969 206.117 306.853C206.16 306.738 206.164 306.611 206.129 306.493C206.094 306.374 206.022 306.271 205.923 306.197V306.197C205.888 306.166 205.849 306.14 205.808 306.119V306.119Z" fill="white"/>
<path opacity="0.5" d="M106.808 199.119C106.553 199.004 106.349 198.801 106.234 198.546C106.12 198.291 106.102 198.004 106.185 197.737C106.199 197.696 106.207 197.653 106.21 197.609V197.609C106.218 197.486 106.186 197.364 106.119 197.26C106.052 197.157 105.953 197.078 105.837 197.035C105.721 196.993 105.595 196.989 105.476 197.024C105.358 197.059 105.254 197.131 105.18 197.23V197.23C105.155 197.265 105.135 197.302 105.118 197.342C105.004 197.597 104.8 197.801 104.546 197.915C104.291 198.03 104.003 198.047 103.737 197.964C103.695 197.951 103.653 197.943 103.609 197.939V197.939C103.486 197.931 103.364 197.963 103.26 198.031C103.157 198.098 103.078 198.197 103.035 198.313C102.993 198.429 102.989 198.555 103.024 198.673C103.059 198.792 103.131 198.896 103.23 198.969C103.265 198.995 103.302 199.015 103.342 199.032C103.596 199.146 103.8 199.35 103.915 199.604C104.03 199.859 104.047 200.147 103.964 200.413C103.951 200.455 103.942 200.498 103.939 200.541V200.541C103.926 200.666 103.955 200.793 104.021 200.9C104.087 201.007 104.186 201.09 104.304 201.135C104.422 201.18 104.551 201.185 104.672 201.149C104.793 201.113 104.898 201.038 104.972 200.936V200.936C104.997 200.902 105.018 200.864 105.034 200.824C105.149 200.57 105.352 200.366 105.607 200.251C105.861 200.136 106.149 200.119 106.416 200.202C106.457 200.215 106.5 200.224 106.543 200.227V200.227C106.666 200.235 106.789 200.203 106.892 200.135C106.996 200.068 107.074 199.969 107.117 199.853C107.16 199.738 107.164 199.611 107.129 199.493C107.094 199.374 107.022 199.271 106.923 199.197V199.197C106.888 199.166 106.849 199.14 106.808 199.119V199.119Z" fill="white"/>
<path opacity="0.5" d="M272.808 319.119C272.553 319.004 272.349 318.801 272.234 318.546C272.12 318.291 272.102 318.004 272.185 317.737C272.199 317.696 272.207 317.653 272.21 317.609V317.609C272.218 317.486 272.186 317.364 272.119 317.26C272.052 317.157 271.953 317.078 271.837 317.035C271.721 316.993 271.595 316.989 271.476 317.024C271.358 317.059 271.254 317.131 271.18 317.23V317.23C271.155 317.265 271.135 317.302 271.118 317.342C271.004 317.597 270.8 317.801 270.546 317.915C270.291 318.03 270.003 318.047 269.737 317.964C269.695 317.951 269.653 317.943 269.609 317.939V317.939C269.486 317.931 269.364 317.963 269.26 318.031C269.157 318.098 269.078 318.197 269.035 318.313C268.993 318.429 268.989 318.555 269.024 318.673C269.059 318.792 269.131 318.896 269.23 318.969C269.265 318.995 269.302 319.015 269.342 319.032C269.596 319.146 269.8 319.35 269.915 319.604C270.03 319.859 270.047 320.147 269.964 320.413C269.951 320.455 269.942 320.498 269.939 320.541V320.541C269.926 320.666 269.955 320.793 270.021 320.9C270.087 321.007 270.186 321.09 270.304 321.135C270.422 321.18 270.551 321.185 270.672 321.149C270.793 321.113 270.898 321.038 270.972 320.936V320.936C270.997 320.902 271.018 320.864 271.034 320.824C271.149 320.57 271.352 320.366 271.607 320.251C271.861 320.136 272.149 320.119 272.416 320.202C272.457 320.215 272.5 320.224 272.543 320.227V320.227C272.666 320.235 272.789 320.203 272.892 320.135C272.996 320.068 273.074 319.969 273.117 319.853C273.16 319.738 273.164 319.611 273.129 319.493C273.094 319.374 273.022 319.271 272.923 319.197V319.197C272.888 319.166 272.849 319.14 272.808 319.119V319.119Z" fill="#4D8AF0"/>
<path opacity="0.5" d="M323.867 85.7345C324.898 85.7345 325.733 84.8985 325.733 83.8673C325.733 82.836 324.898 82 323.867 82C322.836 82 322 82.836 322 83.8673C322 84.8985 322.836 85.7345 323.867 85.7345Z" fill="#158243"/>
<path opacity="0.5" d="M176.867 163.735C177.898 163.735 178.733 162.899 178.733 161.867C178.733 160.836 177.898 160 176.867 160C175.836 160 175 160.836 175 161.867C175 162.899 175.836 163.735 176.867 163.735Z" fill="#158243"/>
<path opacity="0.5" d="M46.8667 291.735C47.8977 291.735 48.7334 290.899 48.7334 289.867C48.7334 288.836 47.8977 288 46.8667 288C45.8358 288 45 288.836 45 289.867C45 290.899 45.8358 291.735 46.8667 291.735Z" fill="#158243"/>
<path opacity="0.5" d="M199.867 151.735C200.898 151.735 201.733 150.899 201.733 149.867C201.733 148.836 200.898 148 199.867 148C198.836 148 198 148.836 198 149.867C198 150.899 198.836 151.735 199.867 151.735Z" fill="white" fill-opacity="0.7"/>
<path opacity="0.5" d="M226.867 342.735C227.898 342.735 228.733 341.899 228.733 340.867C228.733 339.836 227.898 339 226.867 339C225.836 339 225 339.836 225 340.867C225 341.899 225.836 342.735 226.867 342.735Z" fill="black" fill-opacity="0.7"/>
<path opacity="0.5" d="M346.867 146.735C347.898 146.735 348.733 145.899 348.733 144.867C348.733 143.836 347.898 143 346.867 143C345.836 143 345 143.836 345 144.867C345 145.899 345.836 146.735 346.867 146.735Z" fill="black" fill-opacity="0.7"/>
<path opacity="0.5" d="M313.867 71.7345C314.898 71.7345 315.733 70.8985 315.733 69.8673C315.733 68.836 314.898 68 313.867 68C312.836 68 312 68.836 312 69.8673C312 70.8985 312.836 71.7345 313.867 71.7345Z" fill="#F55F44"/>
<path opacity="0.5" d="M160.867 276.735C161.898 276.735 162.733 275.899 162.733 274.867C162.733 273.836 161.898 273 160.867 273C159.836 273 159 273.836 159 274.867C159 275.899 159.836 276.735 160.867 276.735Z" fill="#F55F44"/>
<path opacity="0.5" d="M54.8667 53.7345C55.8977 53.7345 56.7334 52.8985 56.7334 51.8673C56.7334 50.836 55.8977 50 54.8667 50C53.8358 50 53 50.836 53 51.8673C53 52.8985 53.8358 53.7345 54.8667 53.7345Z" fill="white"/>
<path opacity="0.5" d="M80.8667 92.7345C81.8977 92.7345 82.7334 91.8985 82.7334 90.8673C82.7334 89.836 81.8977 89 80.8667 89C79.8358 89 79 89.836 79 90.8673C79 91.8985 79.8358 92.7345 80.8667 92.7345Z" fill="#F55F44"/>
<g opacity="0.5">
<path opacity="0.5" d="M122.681 190.017V240.036H201.487C201.487 240.036 207.305 251.485 217.307 254.815C217.307 254.815 214.114 246.705 217.447 240.036H239.387V190.017H122.681Z" fill="url(#paint0_linear)"/>
</g>
<path opacity="0.8" d="M126.009 199.208C126.009 207.512 126.009 218.366 126.009 226.487C126.009 238.042 137.279 238.042 137.279 238.042H204.86C204.86 238.042 204.86 247.504 214.322 250.658C214.322 250.658 211.168 244.35 214.322 238.042H224.774H236.4L236.264 229.656L235.773 199.487C235.773 199.487 234.774 190.987 224.274 190.987C205.32 190.987 164.893 190.73 134.779 190.73C130.279 190.987 125.779 194.487 126.009 199.208Z" fill="white"/>
<path d="M198.382 201.193H135.298V207.502H198.382V201.193Z" fill="#80868A"/>
<path d="M220.462 210.656H135.298V216.964H220.462V210.656Z" fill="#80868A"/>
<path d="M210.999 220.119H135.298V226.427H210.999V220.119Z" fill="#80868A"/>
<g opacity="0.5">
<path opacity="0.5" d="M90.9496 181.95C108.771 181.95 123.218 167.502 123.218 149.681C123.218 131.859 108.771 117.412 90.9496 117.412C73.1279 117.412 58.6807 131.859 58.6807 149.681C58.6807 167.502 73.1279 181.95 90.9496 181.95Z" fill="url(#paint1_linear)"/>
</g>
<path opacity="0.9" d="M90.8709 181.086C108.316 181.086 122.458 166.945 122.458 149.5C122.458 132.055 108.316 117.913 90.8709 117.913C73.426 117.913 59.2842 132.055 59.2842 149.5C59.2842 166.945 73.426 181.086 90.8709 181.086Z" fill="#F5F5F5"/>
<path d="M91.0383 181.181C97.2107 181.191 103.25 179.384 108.402 175.985C107.238 169.626 102.808 169.261 102.808 169.261H78.3857C78.3857 169.261 74.2091 169.603 72.9004 175.456C78.2103 179.191 84.5463 181.191 91.0383 181.181Z" fill="#F55F44"/>
<path d="M90.708 162.812C98.4417 162.812 104.711 156.543 104.711 148.809C104.711 141.075 98.4417 134.806 90.708 134.806C82.9744 134.806 76.7051 141.075 76.7051 148.809C76.7051 156.543 82.9744 162.812 90.708 162.812Z" fill="#333333"/>
<path opacity="0.1" d="M85.7871 161.509H95.5577V169.325C95.5577 170.62 95.0432 171.862 94.1273 172.778C93.2113 173.694 91.9691 174.209 90.6738 174.209C89.3785 174.209 88.1363 173.694 87.2204 172.778C86.3044 171.862 85.7899 170.62 85.7899 169.325V161.509H85.7871Z" fill="black"/>
<path d="M86.72 161.147H94.6251C94.8725 161.147 95.1097 161.245 95.2847 161.42C95.4596 161.595 95.5579 161.832 95.5579 162.08V168.963C95.5579 170.258 95.0433 171.5 94.1274 172.416C93.2115 173.332 91.9692 173.847 90.674 173.847C89.3787 173.847 88.1364 173.332 87.2205 172.416C86.3046 171.5 85.79 170.258 85.79 168.963V162.08C85.79 161.833 85.8879 161.596 86.0623 161.421C86.2366 161.246 86.4731 161.148 86.72 161.147Z" fill="#BE7C5E"/>
<path opacity="0.1" d="M85.8066 165.198C88.9555 166.375 92.4218 166.385 95.5772 165.226V164.026H85.8066V165.198Z" fill="black"/>
<path d="M90.708 165.853C98.4417 165.853 104.711 159.583 104.711 151.85C104.711 144.116 98.4417 137.847 90.708 137.847C82.9744 137.847 76.7051 144.116 76.7051 151.85C76.7051 159.583 82.9744 165.853 90.708 165.853Z" fill="#BE7C5E"/>
<path d="M82.2238 146.075C82.3881 145.471 82.5941 144.805 83.1371 144.491C83.5659 144.24 84.0977 144.279 84.5934 144.304C88.4637 144.516 92.3007 143.633 96.0653 142.711C98.2176 142.185 100.52 141.545 101.913 139.81C103.305 138.075 101.489 132.623 99.3704 131.98C97.9782 131.554 96.3632 132.348 95.0434 131.724C94.4559 131.445 94.0243 130.925 93.5175 130.518C92.4789 129.683 91.1452 129.346 89.8532 129.029C88.344 128.655 86.7123 128.291 85.2783 128.889C84.1646 129.352 83.3515 130.329 82.2962 130.908C80.2886 132.022 77.8411 131.504 75.5411 131.498C74.7643 131.498 73.8371 131.654 73.528 132.367C73.3192 132.852 73.4862 133.403 73.5085 133.929C73.5753 135.6 72.197 136.9 71.0415 138.106C69.8859 139.311 68.7944 141.032 69.524 142.53C69.8024 143.101 70.312 143.533 70.6015 144.098C71.1 145.078 70.8494 146.261 71.0303 147.345C71.2116 148.166 71.5187 148.955 71.9409 149.684C72.7985 151.354 77.106 160.348 79.0857 158.062C80.0436 156.948 80.1995 153.729 80.5866 152.281C81.1212 150.201 81.6669 148.132 82.2238 146.075Z" fill="#333333"/>
<path d="M80.7445 153.782C81.4642 153.782 82.0476 152.689 82.0476 151.34C82.0476 149.992 81.4642 148.898 80.7445 148.898C80.0248 148.898 79.4414 149.992 79.4414 151.34C79.4414 152.689 80.0248 153.782 80.7445 153.782Z" fill="#BE7C5E"/>
<g opacity="0.5">
<path opacity="0.5" d="M272.731 290.05C290.552 290.05 305 275.603 305 257.781C305 239.96 290.552 225.513 272.731 225.513C254.909 225.513 240.462 239.96 240.462 257.781C240.462 275.603 254.909 290.05 272.731 290.05Z" fill="url(#paint2_linear)"/>
</g>
<path opacity="0.9" d="M272.587 289.173C290.032 289.173 304.173 275.032 304.173 257.587C304.173 240.142 290.032 226 272.587 226C255.142 226 241 240.142 241 257.587C241 275.032 255.142 289.173 272.587 289.173Z" fill="#F5F5F5"/>
<path d="M272.82 289.287C278.991 289.297 285.029 287.49 290.181 284.092C289.017 277.732 284.587 277.367 284.587 277.367H260.153C260.153 277.367 255.977 277.71 254.668 283.563C259.982 287.3 266.323 289.3 272.82 289.287Z" fill="#0D98B9"/>
<path d="M272.486 272.158C280.907 272.158 287.734 265.331 287.734 256.91C287.734 248.489 280.907 241.662 272.486 241.662C264.065 241.662 257.238 248.489 257.238 256.91C257.238 265.331 264.065 272.158 272.486 272.158Z" fill="#333333"/>
<path opacity="0.1" d="M267.565 269.61H277.336V277.426C277.336 278.721 276.821 279.963 275.906 280.879C274.99 281.795 273.747 282.31 272.452 282.31C271.157 282.31 269.915 281.795 268.999 280.879C268.083 279.963 267.568 278.721 267.568 277.426V269.61H267.565Z" fill="black"/>
<path d="M268.498 269.248H276.403C276.651 269.248 276.888 269.346 277.063 269.521C277.238 269.696 277.336 269.933 277.336 270.181V277.069C277.336 278.365 276.821 279.607 275.906 280.523C274.99 281.439 273.747 281.953 272.452 281.953C271.811 281.954 271.175 281.828 270.582 281.582C269.989 281.337 269.451 280.977 268.997 280.524C268.543 280.07 268.183 279.532 267.937 278.939C267.692 278.346 267.565 277.711 267.565 277.069V270.178C267.565 269.93 267.664 269.693 267.839 269.518C268.014 269.343 268.251 269.245 268.498 269.245V269.248Z" fill="#FDB797"/>
<path opacity="0.1" d="M267.586 273.299C270.735 274.476 274.201 274.486 277.357 273.327V272.119H267.586V273.299Z" fill="black"/>
<path d="M272.486 273.954C280.22 273.954 286.489 267.684 286.489 259.951C286.489 252.217 280.22 245.948 272.486 245.948C264.753 245.948 258.483 252.217 258.483 259.951C258.483 267.684 264.753 273.954 272.486 273.954Z" fill="#FDB797"/>
<path opacity="0.1" d="M262.516 247.212C262.516 247.212 268.416 259.185 285.07 252.224L281.194 246.145L274.324 243.678L262.516 247.212Z" fill="black"/>
<path d="M262.516 247.036C262.516 247.036 268.416 259.009 285.07 252.048L281.194 245.97L274.324 243.503L262.516 247.036Z" fill="#333333"/>
<path d="M262.462 246.223C262.86 244.992 263.547 243.874 264.467 242.963C267.221 240.24 271.737 239.666 274.054 236.558C274.18 236.778 274.258 237.022 274.284 237.274C274.31 237.526 274.282 237.781 274.204 238.022C274.125 238.263 273.996 238.485 273.827 238.673C273.657 238.861 273.45 239.011 273.218 239.115C275.446 239.101 278.01 238.906 279.263 237.079C279.574 237.801 279.672 238.596 279.549 239.372C279.425 240.148 279.084 240.872 278.565 241.462C280.53 241.551 282.63 242.885 282.758 244.851C282.841 246.159 282.023 247.398 280.945 248.15C279.868 248.902 278.567 249.244 277.286 249.528C273.55 250.358 260.023 253.814 262.462 246.223Z" fill="#333333"/>
<path d="M258.478 262.379C259.198 262.379 259.781 261.285 259.781 259.937C259.781 258.588 259.198 257.495 258.478 257.495C257.758 257.495 257.175 258.588 257.175 259.937C257.175 261.285 257.758 262.379 258.478 262.379Z" fill="#FDB797"/>
<path d="M286.487 262.379C287.206 262.379 287.79 261.285 287.79 259.937C287.79 258.588 287.206 257.495 286.487 257.495C285.767 257.495 285.184 258.588 285.184 259.937C285.184 261.285 285.767 262.379 286.487 262.379Z" fill="#FDB797"/>
<g opacity="0.5">
<path opacity="0.5" d="M239.706 84V134.017H160.903C160.903 134.017 155.085 145.467 145.079 148.796C145.079 148.796 148.272 140.686 144.939 134.017H123V84H239.706Z" fill="url(#paint3_linear)"/>
</g>
<path d="M236.771 93.7214C236.771 102.025 236.771 112.879 236.771 121C236.771 132.555 225.5 132.555 225.5 132.555H157.915C157.915 132.555 157.915 142.017 148.453 145.171C148.453 145.171 151.607 138.863 148.453 132.555H138H126.373L126.509 124.169L127 94C127 94 128 85.5 138.5 85.5C157.455 85.5 197.884 85.2432 228 85.2432C232.5 85.5 237 89 236.771 93.7214Z" fill="#DEFFEC"/>
<path d="M202.424 94.7054H139.34V101.014H202.424V94.7054Z" fill="#80868A"/>
<path d="M224.504 104.168H139.34V110.476H224.504V104.168Z" fill="#80868A"/>
<path d="M215.041 113.63H139.34V119.938H215.041V113.63Z" fill="#80868A"/>
<defs>
<linearGradient id="paint0_linear" x1="44062.4" y1="27891.2" x2="44062.4" y2="15910.7" gradientUnits="userSpaceOnUse">
<stop stop-color="#808080" stop-opacity="0.25"/>
<stop offset="0.54" stop-color="#808080" stop-opacity="0.12"/>
<stop offset="1" stop-color="#808080" stop-opacity="0.1"/>
</linearGradient>
<linearGradient id="paint1_linear" x1="90.9496" y1="181.95" x2="90.9496" y2="117.415" gradientUnits="userSpaceOnUse">
<stop stop-color="#808080" stop-opacity="0.25"/>
<stop offset="0.54" stop-color="#808080" stop-opacity="0.12"/>
<stop offset="1" stop-color="#808080" stop-opacity="0.1"/>
</linearGradient>
<linearGradient id="paint2_linear" x1="7719.75" y1="31372.8" x2="7719.75" y2="16414.8" gradientUnits="userSpaceOnUse">
<stop stop-color="#808080" stop-opacity="0.25"/>
<stop offset="0.54" stop-color="#808080" stop-opacity="0.12"/>
<stop offset="1" stop-color="#808080" stop-opacity="0.1"/>
</linearGradient>
<linearGradient id="paint3_linear" x1="-385587" y1="45603.2" x2="-385587" y2="33623" gradientUnits="userSpaceOnUse">
<stop stop-color="#808080" stop-opacity="0.25"/>
<stop offset="0.54" stop-color="#808080" stop-opacity="0.12"/>
<stop offset="1" stop-color="#808080" stop-opacity="0.1"/>
</linearGradient>
</defs>
</svg>
