<svg width="220" height="220" viewBox="0 0 220 220" fill="none" xmlns="http://www.w3.org/2000/svg">
<g opacity="0.9">
<circle cx="110" cy="110" r="110" fill="#ECECEC" fill-opacity="0.8"/>
<path d="M139.215 162.225H50V58.6129L63.4797 43.666H139.215V162.225Z" fill="url(#paint0_linear)"/>
<path d="M137.837 159.074H51.5762V59.4214L64.6085 45.0435H137.837V159.074Z" fill="#FAFAFA"/>
<path d="M102.021 57.3533H59.9971V64.4427H102.021V57.3533Z" fill="#E0E0E0"/>
<path d="M90.8776 76.7512H60.082V83.8407H90.8776V76.7512Z" fill="#E0E0E0"/>
<path d="M129.159 105.9H60.082V131.896H129.159V105.9Z" fill="#344359"/>
<path d="M65.9524 45.0435V60.7988H51.5762V59.4214L64.5732 45.0435H65.9524Z" fill="url(#paint1_linear)"/>
<path d="M51.541 59.4214L64.5733 45.0435V59.4214H51.541Z" fill="#EEEEEE"/>
<path d="M166 153.561H76.7852V49.9487L90.2631 35H166V153.561Z" fill="url(#paint2_linear)"/>
<path d="M164.62 150.409H78.3594V50.7551L91.3934 36.3789H164.62V150.409Z" fill="white"/>
<path d="M128.807 48.6875H86.7832V55.777H128.807V48.6875Z" fill="#E0E0E0"/>
<path d="M117.663 68.0872H86.8672V75.1766H117.663V68.0872Z" fill="#E0E0E0"/>
<path d="M155.944 97.2341H86.8672V123.23H155.944V97.2341Z" fill="#344359"/>
<path d="M155.943 48.7864H140.29V55.8758H155.943V48.7864Z" fill="#E0E0E0"/>
<path d="M155.943 59.814H140.29V66.9034H155.943V59.814Z" fill="#E0E0E0"/>
<path d="M155.943 70.8438H140.29V77.9332H155.943V70.8438Z" fill="#E0E0E0"/>
<path d="M92.7374 36.3789V52.1343H78.3594V50.7551L91.3582 36.3789H92.7374Z" fill="url(#paint3_linear)"/>
<path d="M78.3242 50.7551L91.3583 36.3789V50.7551H78.3242Z" fill="#EEEEEE"/>
<path d="M78.082 185H76.3525L71.916 177.938V185H70.1865V175.047H71.916L76.3662 182.136V175.047H78.082V185ZM79.6543 181.233C79.6543 180.509 79.7979 179.857 80.085 179.278C80.3721 178.695 80.7754 178.248 81.2949 177.938C81.8145 177.624 82.4115 177.467 83.0859 177.467C84.084 177.467 84.8929 177.788 85.5127 178.431C86.137 179.073 86.4743 179.925 86.5244 180.987L86.5312 181.377C86.5312 182.106 86.39 182.758 86.1074 183.332C85.8294 183.906 85.4284 184.351 84.9043 184.665C84.3848 184.979 83.7832 185.137 83.0996 185.137C82.056 185.137 81.2197 184.79 80.5908 184.098C79.9665 183.4 79.6543 182.473 79.6543 181.315V181.233ZM81.3154 181.377C81.3154 182.138 81.4727 182.735 81.7871 183.168C82.1016 183.596 82.5391 183.811 83.0996 183.811C83.6602 183.811 84.0954 183.592 84.4053 183.154C84.7197 182.717 84.877 182.076 84.877 181.233C84.877 180.486 84.7152 179.894 84.3916 179.456C84.0726 179.019 83.6374 178.8 83.0859 178.8C82.5436 178.8 82.113 179.016 81.7939 179.449C81.4749 179.878 81.3154 180.52 81.3154 181.377ZM97.3184 180.782H93.3125V185H91.583V175.047H97.9062V176.441H93.3125V179.401H97.3184V180.782ZM100.887 185H99.2256V177.604H100.887V185ZM99.123 175.683C99.123 175.427 99.2028 175.215 99.3623 175.047C99.5264 174.878 99.7588 174.794 100.06 174.794C100.36 174.794 100.593 174.878 100.757 175.047C100.921 175.215 101.003 175.427 101.003 175.683C101.003 175.933 100.921 176.143 100.757 176.312C100.593 176.476 100.36 176.558 100.06 176.558C99.7588 176.558 99.5264 176.476 99.3623 176.312C99.2028 176.143 99.123 175.933 99.123 175.683ZM104.469 185H102.808V174.5H104.469V185ZM109.541 185.137C108.488 185.137 107.634 184.806 106.978 184.146C106.326 183.48 106 182.596 106 181.493V181.288C106 180.55 106.141 179.891 106.424 179.312C106.711 178.729 107.112 178.276 107.627 177.952C108.142 177.629 108.716 177.467 109.35 177.467C110.357 177.467 111.134 177.788 111.681 178.431C112.232 179.073 112.508 179.982 112.508 181.158V181.828H107.675C107.725 182.439 107.928 182.922 108.283 183.277C108.643 183.633 109.094 183.811 109.637 183.811C110.398 183.811 111.018 183.503 111.496 182.888L112.392 183.742C112.095 184.184 111.699 184.528 111.202 184.774C110.71 185.016 110.156 185.137 109.541 185.137ZM109.343 178.8C108.887 178.8 108.518 178.959 108.235 179.278C107.957 179.597 107.78 180.042 107.702 180.611H110.867V180.488C110.831 179.932 110.683 179.513 110.423 179.23C110.163 178.943 109.803 178.8 109.343 178.8ZM117.949 182.99C117.949 182.694 117.826 182.468 117.58 182.313C117.339 182.159 116.935 182.022 116.37 181.903C115.805 181.785 115.333 181.634 114.955 181.452C114.126 181.051 113.711 180.47 113.711 179.709C113.711 179.071 113.98 178.538 114.518 178.109C115.055 177.681 115.739 177.467 116.568 177.467C117.452 177.467 118.166 177.686 118.708 178.123C119.255 178.561 119.528 179.128 119.528 179.825H117.867C117.867 179.506 117.749 179.242 117.512 179.032C117.275 178.818 116.96 178.711 116.568 178.711C116.204 178.711 115.905 178.795 115.673 178.964C115.445 179.132 115.331 179.358 115.331 179.641C115.331 179.896 115.438 180.094 115.652 180.235C115.867 180.377 116.299 180.52 116.951 180.666C117.603 180.807 118.113 180.978 118.482 181.179C118.856 181.375 119.132 181.612 119.31 181.89C119.492 182.168 119.583 182.505 119.583 182.901C119.583 183.567 119.307 184.107 118.756 184.521C118.204 184.932 117.482 185.137 116.589 185.137C115.983 185.137 115.443 185.027 114.969 184.809C114.495 184.59 114.126 184.289 113.861 183.906C113.597 183.523 113.465 183.111 113.465 182.669H115.078C115.101 183.061 115.249 183.364 115.522 183.578C115.796 183.788 116.158 183.893 116.609 183.893C117.047 183.893 117.38 183.811 117.607 183.646C117.835 183.478 117.949 183.259 117.949 182.99ZM127.109 182.621L128.613 177.604H130.384L127.444 186.121C126.993 187.365 126.228 187.987 125.147 187.987C124.906 187.987 124.639 187.946 124.348 187.864V186.579L124.662 186.6C125.081 186.6 125.396 186.522 125.605 186.367C125.82 186.217 125.988 185.962 126.111 185.602L126.351 184.966L123.753 177.604H125.544L127.109 182.621ZM134.506 185.137C133.453 185.137 132.599 184.806 131.942 184.146C131.291 183.48 130.965 182.596 130.965 181.493V181.288C130.965 180.55 131.106 179.891 131.389 179.312C131.676 178.729 132.077 178.276 132.592 177.952C133.107 177.629 133.681 177.467 134.314 177.467C135.322 177.467 136.099 177.788 136.646 178.431C137.197 179.073 137.473 179.982 137.473 181.158V181.828H132.64C132.69 182.439 132.893 182.922 133.248 183.277C133.608 183.633 134.059 183.811 134.602 183.811C135.363 183.811 135.982 183.503 136.461 182.888L137.356 183.742C137.06 184.184 136.664 184.528 136.167 184.774C135.675 185.016 135.121 185.137 134.506 185.137ZM134.308 178.8C133.852 178.8 133.483 178.959 133.2 179.278C132.922 179.597 132.744 180.042 132.667 180.611H135.832V180.488C135.796 179.932 135.647 179.513 135.388 179.23C135.128 178.943 134.768 178.8 134.308 178.8ZM140.85 175.806V177.604H142.155V178.834H140.85V182.963C140.85 183.245 140.904 183.451 141.014 183.578C141.128 183.701 141.328 183.763 141.615 183.763C141.807 183.763 142 183.74 142.196 183.694V184.979C141.818 185.084 141.453 185.137 141.103 185.137C139.826 185.137 139.188 184.433 139.188 183.024V178.834H137.972V177.604H139.188V175.806H140.85ZM148.677 182.067H147.248L147.091 175.047H148.841L148.677 182.067ZM147.043 184.214C147.043 183.954 147.127 183.74 147.296 183.571C147.465 183.398 147.695 183.312 147.986 183.312C148.278 183.312 148.508 183.398 148.677 183.571C148.845 183.74 148.93 183.954 148.93 184.214C148.93 184.465 148.848 184.674 148.684 184.843C148.52 185.011 148.287 185.096 147.986 185.096C147.686 185.096 147.453 185.011 147.289 184.843C147.125 184.674 147.043 184.465 147.043 184.214Z" fill="#344359"/>
</g>
<defs>
<linearGradient id="paint0_linear" x1="36510.2" y1="85679.9" x2="36510.2" y2="5876.76" gradientUnits="userSpaceOnUse">
<stop offset="0.01" stop-color="#808080" stop-opacity="0.25"/>
<stop offset="0.54" stop-color="#808080" stop-opacity="0.12"/>
<stop offset="1" stop-color="#808080" stop-opacity="0.1"/>
</linearGradient>
<linearGradient id="paint1_linear" x1="3001.29" y1="2352.89" x2="3001.29" y2="943.414" gradientUnits="userSpaceOnUse">
<stop stop-color="#B3B3B3" stop-opacity="0.25"/>
<stop offset="0.54" stop-color="#B3B3B3" stop-opacity="0.1"/>
<stop offset="1" stop-color="#B3B3B3" stop-opacity="0.05"/>
</linearGradient>
<linearGradient id="paint2_linear" x1="50103" y1="79840.5" x2="50103" y2="35" gradientUnits="userSpaceOnUse">
<stop offset="0.01" stop-color="#808080" stop-opacity="0.25"/>
<stop offset="0.54" stop-color="#808080" stop-opacity="0.12"/>
<stop offset="1" stop-color="#808080" stop-opacity="0.1"/>
</linearGradient>
<linearGradient id="paint3_linear" x1="5214.75" y1="1569.06" x2="5214.75" y2="159.743" gradientUnits="userSpaceOnUse">
<stop stop-color="#B3B3B3" stop-opacity="0.25"/>
<stop offset="0.54" stop-color="#B3B3B3" stop-opacity="0.1"/>
<stop offset="1" stop-color="#B3B3B3" stop-opacity="0.05"/>
</linearGradient>
</defs>
</svg>
