<svg width="220" height="220" viewBox="0 0 220 220" fill="none" xmlns="http://www.w3.org/2000/svg">
<g opacity="0.9">
<circle cx="110" cy="110" r="110" fill="#ECECEC" fill-opacity="0.8"/>
<path d="M73.5088 185H71.7793L67.3428 177.938V185H65.6133V175.047H67.3428L71.793 182.136V175.047H73.5088V185ZM75.0811 181.233C75.0811 180.509 75.2246 179.857 75.5117 179.278C75.7988 178.695 76.2021 178.248 76.7217 177.938C77.2412 177.624 77.8382 177.467 78.5127 177.467C79.5107 177.467 80.3197 177.788 80.9395 178.431C81.5638 179.073 81.901 179.925 81.9512 180.987L81.958 181.377C81.958 182.106 81.8167 182.758 81.5342 183.332C81.2562 183.906 80.8551 184.351 80.3311 184.665C79.8115 184.979 79.21 185.137 78.5264 185.137C77.4827 185.137 76.6465 184.79 76.0176 184.098C75.3932 183.4 75.0811 182.473 75.0811 181.315V181.233ZM76.7422 181.377C76.7422 182.138 76.8994 182.735 77.2139 183.168C77.5283 183.596 77.9658 183.811 78.5264 183.811C79.0869 183.811 79.5221 183.592 79.832 183.154C80.1465 182.717 80.3037 182.076 80.3037 181.233C80.3037 180.486 80.1419 179.894 79.8184 179.456C79.4993 179.019 79.0641 178.8 78.5127 178.8C77.9704 178.8 77.5397 179.016 77.2207 179.449C76.9017 179.878 76.7422 180.52 76.7422 181.377ZM88.4111 177.604L88.459 178.376C88.9785 177.77 89.6895 177.467 90.5918 177.467C91.5807 177.467 92.2575 177.845 92.6221 178.602C93.1598 177.845 93.9163 177.467 94.8916 177.467C95.7074 177.467 96.3135 177.692 96.71 178.144C97.111 178.595 97.3161 179.26 97.3252 180.14V185H95.6641V180.188C95.6641 179.718 95.5615 179.374 95.3564 179.155C95.1514 178.937 94.8118 178.827 94.3379 178.827C93.9596 178.827 93.6497 178.93 93.4082 179.135C93.1712 179.335 93.0049 179.6 92.9092 179.928L92.916 185H91.2549V180.133C91.2321 179.262 90.7878 178.827 89.9219 178.827C89.2565 178.827 88.7848 179.098 88.5068 179.641V185H86.8457V177.604H88.4111ZM102.288 185.137C101.235 185.137 100.381 184.806 99.7246 184.146C99.0729 183.48 98.7471 182.596 98.7471 181.493V181.288C98.7471 180.55 98.8883 179.891 99.1709 179.312C99.458 178.729 99.859 178.276 100.374 177.952C100.889 177.629 101.463 177.467 102.097 177.467C103.104 177.467 103.881 177.788 104.428 178.431C104.979 179.073 105.255 179.982 105.255 181.158V181.828H100.422C100.472 182.439 100.675 182.922 101.03 183.277C101.39 183.633 101.841 183.811 102.384 183.811C103.145 183.811 103.765 183.503 104.243 182.888L105.139 183.742C104.842 184.184 104.446 184.528 103.949 184.774C103.457 185.016 102.903 185.137 102.288 185.137ZM102.09 178.8C101.634 178.8 101.265 178.959 100.982 179.278C100.704 179.597 100.527 180.042 100.449 180.611H103.614V180.488C103.578 179.932 103.43 179.513 103.17 179.23C102.91 178.943 102.55 178.8 102.09 178.8ZM106.239 181.247C106.239 180.108 106.504 179.194 107.032 178.506C107.561 177.813 108.27 177.467 109.158 177.467C109.942 177.467 110.576 177.74 111.059 178.287V174.5H112.72V185H111.216L111.134 184.234C110.637 184.836 109.974 185.137 109.145 185.137C108.279 185.137 107.577 184.788 107.039 184.091C106.506 183.394 106.239 182.446 106.239 181.247ZM107.9 181.391C107.9 182.143 108.044 182.73 108.331 183.154C108.623 183.574 109.035 183.783 109.568 183.783C110.247 183.783 110.744 183.48 111.059 182.874V179.716C110.753 179.123 110.261 178.827 109.582 178.827C109.044 178.827 108.63 179.041 108.338 179.47C108.046 179.894 107.9 180.534 107.9 181.391ZM116.22 185H114.559V177.604H116.22V185ZM114.456 175.683C114.456 175.427 114.536 175.215 114.695 175.047C114.859 174.878 115.092 174.794 115.393 174.794C115.693 174.794 115.926 174.878 116.09 175.047C116.254 175.215 116.336 175.427 116.336 175.683C116.336 175.933 116.254 176.143 116.09 176.312C115.926 176.476 115.693 176.558 115.393 176.558C115.092 176.558 114.859 176.476 114.695 176.312C114.536 176.143 114.456 175.933 114.456 175.683ZM122.454 185C122.381 184.859 122.317 184.629 122.263 184.31C121.734 184.861 121.087 185.137 120.321 185.137C119.578 185.137 118.972 184.925 118.503 184.501C118.034 184.077 117.799 183.553 117.799 182.929C117.799 182.14 118.09 181.536 118.674 181.117C119.262 180.693 120.1 180.481 121.189 180.481H122.208V179.996C122.208 179.613 122.101 179.308 121.887 179.08C121.673 178.848 121.347 178.731 120.909 178.731C120.531 178.731 120.221 178.827 119.979 179.019C119.738 179.205 119.617 179.445 119.617 179.736H117.956C117.956 179.331 118.09 178.952 118.359 178.602C118.628 178.246 118.993 177.968 119.453 177.768C119.918 177.567 120.435 177.467 121.005 177.467C121.871 177.467 122.561 177.686 123.076 178.123C123.591 178.556 123.855 179.167 123.869 179.955V183.291C123.869 183.956 123.963 184.487 124.149 184.884V185H122.454ZM120.629 183.804C120.957 183.804 121.265 183.724 121.552 183.564C121.843 183.405 122.062 183.191 122.208 182.922V181.527H121.312C120.697 181.527 120.235 181.634 119.925 181.849C119.615 182.063 119.46 182.366 119.46 182.758C119.46 183.077 119.565 183.332 119.774 183.523C119.989 183.71 120.273 183.804 120.629 183.804ZM131.683 182.621L133.187 177.604H134.957L132.018 186.121C131.566 187.365 130.801 187.987 129.721 187.987C129.479 187.987 129.213 187.946 128.921 187.864V186.579L129.235 186.6C129.655 186.6 129.969 186.522 130.179 186.367C130.393 186.217 130.562 185.962 130.685 185.602L130.924 184.966L128.326 177.604H130.117L131.683 182.621ZM139.079 185.137C138.026 185.137 137.172 184.806 136.516 184.146C135.864 183.48 135.538 182.596 135.538 181.493V181.288C135.538 180.55 135.679 179.891 135.962 179.312C136.249 178.729 136.65 178.276 137.165 177.952C137.68 177.629 138.254 177.467 138.888 177.467C139.895 177.467 140.672 177.788 141.219 178.431C141.77 179.073 142.046 179.982 142.046 181.158V181.828H137.213C137.263 182.439 137.466 182.922 137.821 183.277C138.181 183.633 138.632 183.811 139.175 183.811C139.936 183.811 140.556 183.503 141.034 182.888L141.93 183.742C141.633 184.184 141.237 184.528 140.74 184.774C140.248 185.016 139.694 185.137 139.079 185.137ZM138.881 178.8C138.425 178.8 138.056 178.959 137.773 179.278C137.495 179.597 137.318 180.042 137.24 180.611H140.405V180.488C140.369 179.932 140.221 179.513 139.961 179.23C139.701 178.943 139.341 178.8 138.881 178.8ZM145.423 175.806V177.604H146.729V178.834H145.423V182.963C145.423 183.245 145.478 183.451 145.587 183.578C145.701 183.701 145.901 183.763 146.188 183.763C146.38 183.763 146.574 183.74 146.77 183.694V184.979C146.391 185.084 146.027 185.137 145.676 185.137C144.4 185.137 143.762 184.433 143.762 183.024V178.834H142.545V177.604H143.762V175.806H145.423ZM153.25 182.067H151.821L151.664 175.047H153.414L153.25 182.067ZM151.616 184.214C151.616 183.954 151.701 183.74 151.869 183.571C152.038 183.398 152.268 183.312 152.56 183.312C152.851 183.312 153.081 183.398 153.25 183.571C153.419 183.74 153.503 183.954 153.503 184.214C153.503 184.465 153.421 184.674 153.257 184.843C153.093 185.011 152.86 185.096 152.56 185.096C152.259 185.096 152.026 185.011 151.862 184.843C151.698 184.674 151.616 184.465 151.616 184.214Z" fill="#344359"/>
<path d="M178 47H42V137.986H178V47Z" fill="url(#paint0_linear)"/>
<path d="M176.563 47.958H43.4365V51.3103H176.563V47.958Z" fill="white"/>
<path d="M176.563 51.3098H43.4365V136.23H176.563V51.3098Z" fill="#F5F5F5"/>
<path opacity="0.2" d="M165.122 58.2078V58.4569C164.166 58.4665 159.821 58.5553 159.821 59.3625C159.819 59.6781 159.908 59.9876 160.076 60.2546C159.789 59.9438 159.631 59.5362 159.632 59.1134C159.636 58.2078 165.122 58.2078 165.122 58.2078Z" fill="white"/>
<path d="M86.0815 98.5816L57.209 98.6824L57.3238 131.579L86.1963 131.478L86.0815 98.5816Z" fill="url(#paint1_linear)"/>
<path d="M85.7455 99.0754L57.5488 99.1738L57.6589 130.707L85.8555 130.609L85.7455 99.0754Z" fill="white"/>
<path opacity="0.2" d="M84.3658 99.8154L58.834 99.9045L58.9134 122.654L84.4452 122.565L84.3658 99.8154Z" fill="#344359"/>
<path d="M124.448 98.5811L95.5752 98.6819L95.69 131.579L124.563 131.478L124.448 98.5811Z" fill="url(#paint2_linear)"/>
<path d="M124.113 99.0744L95.916 99.1729L96.0261 130.706L124.223 130.608L124.113 99.0744Z" fill="white"/>
<path opacity="0.2" d="M122.734 99.8152L97.2021 99.9043L97.2816 122.654L122.813 122.564L122.734 99.8152Z" fill="#344359"/>
<path d="M162.818 98.5801L133.945 98.6809L134.06 131.578L162.933 131.477L162.818 98.5801Z" fill="url(#paint3_linear)"/>
<path d="M162.48 99.0737L134.283 99.1721L134.393 130.706L162.59 130.607L162.48 99.0737Z" fill="white"/>
<path opacity="0.2" d="M161.098 99.8144L135.566 99.9036L135.646 122.653L161.178 122.564L161.098 99.8144Z" fill="#344359"/>
<path d="M85.9467 58.5037L57.0742 58.6045L57.1891 91.5012L86.0615 91.4004L85.9467 58.5037Z" fill="url(#paint4_linear)"/>
<path d="M85.6097 58.9958L57.4131 59.0942L57.5232 90.6276L85.7198 90.5292L85.6097 58.9958Z" fill="white"/>
<path opacity="0.2" d="M84.2301 59.7361L58.6982 59.8252L58.7777 82.5744L84.3095 82.4853L84.2301 59.7361Z" fill="#344359"/>
<path d="M162.414 57.816L133.542 57.9167L133.657 90.8135L162.529 90.7127L162.414 57.816Z" fill="url(#paint5_linear)"/>
<path d="M162.079 58.3076L133.883 58.406L133.993 89.9394L162.19 89.841L162.079 58.3076Z" fill="white"/>
<path opacity="0.2" d="M160.699 59.0503L135.167 59.1394L135.246 81.8886L160.778 81.7995L160.699 59.0503Z" fill="#344359"/>
<path d="M124.248 58.2156L95.376 58.3164L95.4908 91.2131L124.363 91.1123L124.248 58.2156Z" fill="url(#paint6_linear)"/>
<path d="M123.912 58.7072L95.7158 58.8057L95.8259 90.3391L124.023 90.2406L123.912 58.7072Z" fill="white"/>
<path opacity="0.2" d="M122.532 59.4499L97 59.5391L97.0794 82.2883L122.611 82.1992L122.532 59.4499Z" fill="#344359"/>
<path d="M142.904 104.984H79.4316V162.666H142.904V104.984Z" fill="url(#paint7_linear)"/>
<path d="M141.789 106.765H81.0811V160.728H141.789V106.765Z" fill="white"/>
<path d="M85.1298 113.062C86.4543 113.062 87.5281 111.989 87.5281 110.664C87.5281 109.339 86.4543 108.266 85.1298 108.266C83.8052 108.266 82.7314 109.339 82.7314 110.664C82.7314 111.989 83.8052 113.062 85.1298 113.062Z" fill="url(#paint8_linear)"/>
<path d="M85.1291 112.612C86.2051 112.612 87.0775 111.74 87.0775 110.664C87.0775 109.588 86.2051 108.716 85.1291 108.716C84.053 108.716 83.1807 109.588 83.1807 110.664C83.1807 111.74 84.053 112.612 85.1291 112.612Z" fill="#F26B53"/>
<path d="M139.091 108.266H126.649V113.062H139.091V108.266Z" fill="url(#paint9_linear)"/>
<path d="M138.793 108.714H127.101V112.61H138.793V108.714Z" fill="#F5F5F5"/>
<path d="M141.88 120.79H81.0215V146.571H141.88V120.79Z" fill="#344359"/>
<path d="M111.361 149.786C120.219 149.786 127.4 142.605 127.4 133.747C127.4 124.889 120.219 117.708 111.361 117.708C102.503 117.708 95.3223 124.889 95.3223 133.747C95.3223 142.605 102.503 149.786 111.361 149.786Z" fill="url(#paint10_linear)"/>
<path d="M111.36 149.336C119.969 149.336 126.949 142.357 126.949 133.747C126.949 125.138 119.969 118.158 111.36 118.158C102.75 118.158 95.7705 125.138 95.7705 133.747C95.7705 142.357 102.75 149.336 111.36 149.336Z" fill="white"/>
<path d="M111.361 145.138C117.652 145.138 122.752 140.038 122.752 133.747C122.752 127.456 117.652 122.356 111.361 122.356C105.07 122.356 99.9697 127.456 99.9697 133.747C99.9697 140.038 105.07 145.138 111.361 145.138Z" fill="url(#paint11_linear)"/>
<path d="M111.425 144.905C117.551 144.905 122.517 139.939 122.517 133.813C122.517 127.687 117.551 122.721 111.425 122.721C105.299 122.721 100.333 127.687 100.333 133.813C100.333 139.939 105.299 144.905 111.425 144.905Z" fill="#344359"/>
<path d="M111.359 140.641C115.001 140.641 117.954 137.689 117.954 134.047C117.954 130.405 115.001 127.452 111.359 127.452C107.717 127.452 104.765 130.405 104.765 134.047C104.765 137.689 107.717 140.641 111.359 140.641Z" fill="#344359"/>
<path opacity="0.2" d="M111.359 140.641C115.001 140.641 117.954 137.689 117.954 134.047C117.954 130.405 115.001 127.452 111.359 127.452C107.717 127.452 104.765 130.405 104.765 134.047C104.765 137.689 107.717 140.641 111.359 140.641Z" fill="black"/>
<g clip-path="url(#clip0)">
<path d="M109.601 78.1147C112.694 78.1147 115.201 75.6075 115.201 72.5148C115.201 69.422 112.694 66.9148 109.601 66.9148C106.508 66.9148 104.001 69.422 104.001 72.5148C104.001 75.6075 106.508 78.1147 109.601 78.1147Z" fill="#F26B53"/>
<path d="M112.497 72.5149L108.249 75.4115V72.5677V69.6184L112.497 72.5149Z" fill="white"/>
<path d="M108.249 75.6045C108.218 75.6045 108.187 75.5972 108.159 75.5821C108.095 75.5487 108.056 75.4831 108.056 75.4114V69.6184C108.056 69.5467 108.095 69.4811 108.159 69.4477C108.222 69.4141 108.298 69.4187 108.358 69.4589L112.606 72.3554C112.658 72.3913 112.69 72.451 112.69 72.5149C112.69 72.5788 112.658 72.6385 112.606 72.6744L108.357 75.5709C108.325 75.5932 108.287 75.6045 108.249 75.6045ZM108.442 69.9839V75.0461L112.154 72.5149L108.442 69.9839Z" fill="white"/>
</g>
<g clip-path="url(#clip1)">
<path d="M148.413 116.928C151.506 116.928 154.013 114.421 154.013 111.328C154.013 108.235 151.506 105.728 148.413 105.728C145.321 105.728 142.813 108.235 142.813 111.328C142.813 114.421 145.321 116.928 148.413 116.928Z" fill="#F26B53"/>
<path d="M151.31 111.328L147.062 114.225V111.381V108.432L151.31 111.328Z" fill="white"/>
<path d="M147.061 114.418C147.03 114.418 146.999 114.41 146.971 114.395C146.908 114.362 146.868 114.296 146.868 114.225V108.432C146.868 108.36 146.908 108.294 146.971 108.261C147.034 108.227 147.111 108.232 147.17 108.272L151.418 111.169C151.471 111.205 151.503 111.264 151.503 111.328C151.503 111.392 151.471 111.452 151.418 111.488L147.17 114.384C147.137 114.406 147.099 114.418 147.061 114.418ZM147.254 108.797V113.859L150.967 111.328L147.254 108.797Z" fill="white"/>
</g>
<path d="M78.1712 67.2551C77.9444 67.0282 77.6717 66.9148 77.353 66.9148H65.767C65.4484 66.9148 65.1757 67.0282 64.9487 67.2551C64.7218 67.482 64.6084 67.7547 64.6084 68.0733V76.8787C64.6084 77.1974 64.7218 77.4701 64.9487 77.697C65.1757 77.9239 65.4484 78.0373 65.767 78.0373H77.3532C77.6717 78.0373 77.9444 77.9239 78.1713 77.697C78.3982 77.4701 78.5118 77.1974 78.5118 76.8787V68.0733C78.5118 67.7547 78.3982 67.482 78.1712 67.2551ZM77.5847 76.8787C77.5847 76.9415 77.5619 76.9957 77.516 77.0417C77.4701 77.0873 77.4158 77.1102 77.353 77.1102H65.767C65.7043 77.1102 65.65 77.0873 65.6041 77.0417C65.5583 76.9957 65.5353 76.9415 65.5353 76.8787V68.0732C65.5353 68.0105 65.5582 67.9563 65.6041 67.9103C65.65 67.8646 65.7043 67.8416 65.767 67.8416H77.3532C77.4159 67.8416 77.4702 67.8646 77.516 67.9103C77.5617 67.9563 77.5847 68.0105 77.5847 68.0732V76.8787Z" fill="#445266"/>
<path d="M69.9387 73.6343L68.78 72.4758L66.4629 74.7929V76.1833H76.6586V72.9392L73.6463 69.9268L69.9387 73.6343Z" fill="#445266"/>
<path d="M78.1712 106.068C77.9444 105.841 77.6717 105.728 77.353 105.728H65.767C65.4484 105.728 65.1757 105.841 64.9487 106.068C64.7218 106.295 64.6084 106.568 64.6084 106.887V115.692C64.6084 116.011 64.7218 116.283 64.9487 116.51C65.1757 116.737 65.4484 116.851 65.767 116.851H77.3532C77.6717 116.851 77.9444 116.737 78.1713 116.51C78.3982 116.283 78.5118 116.011 78.5118 115.692V106.887C78.5118 106.568 78.3982 106.295 78.1712 106.068ZM77.5847 115.692C77.5847 115.755 77.5619 115.809 77.516 115.855C77.4701 115.901 77.4158 115.923 77.353 115.923H65.767C65.7043 115.923 65.65 115.901 65.6041 115.855C65.5583 115.809 65.5353 115.755 65.5353 115.692V106.886C65.5353 106.824 65.5582 106.77 65.6041 106.724C65.65 106.678 65.7043 106.655 65.767 106.655H77.3532C77.4159 106.655 77.4702 106.678 77.516 106.724C77.5617 106.77 77.5847 106.824 77.5847 106.886V115.692Z" fill="#445266"/>
<path d="M69.9387 112.448L68.78 111.29L66.4629 113.607V114.997H76.6586V111.753L73.6463 108.741L69.9387 112.448Z" fill="#445266"/>
<path d="M154.64 67.2551C154.413 67.0282 154.14 66.9148 153.822 66.9148H142.236C141.917 66.9148 141.644 67.0282 141.417 67.2551C141.191 67.482 141.077 67.7547 141.077 68.0733V76.8787C141.077 77.1974 141.191 77.4701 141.417 77.697C141.644 77.9239 141.917 78.0373 142.236 78.0373H153.822C154.14 78.0373 154.413 77.9239 154.64 77.697C154.867 77.4701 154.981 77.1974 154.981 76.8787V68.0733C154.981 67.7547 154.867 67.482 154.64 67.2551ZM154.053 76.8787C154.053 76.9415 154.031 76.9957 153.985 77.0417C153.939 77.0873 153.885 77.1102 153.822 77.1102H142.236C142.173 77.1102 142.119 77.0873 142.073 77.0417C142.027 76.9957 142.004 76.9415 142.004 76.8787V68.0732C142.004 68.0105 142.027 67.9563 142.073 67.9103C142.119 67.8646 142.173 67.8416 142.236 67.8416H153.822C153.885 67.8416 153.939 67.8646 153.985 67.9103C154.03 67.9563 154.053 68.0105 154.053 68.0732V76.8787Z" fill="#445266"/>
<path d="M146.406 73.6343L145.248 72.4758L142.931 74.7929V76.1833H153.126V72.9392L150.114 69.9268L146.406 73.6343Z" fill="#445266"/>
</g>
<defs>
<linearGradient id="paint0_linear" x1="109.999" y1="137.986" x2="109.999" y2="47" gradientUnits="userSpaceOnUse">
<stop stop-color="#808080" stop-opacity="0.25"/>
<stop offset="0.54" stop-color="#808080" stop-opacity="0.12"/>
<stop offset="1" stop-color="#808080" stop-opacity="0.1"/>
</linearGradient>
<linearGradient id="paint1_linear" x1="13487.3" y1="14831.7" x2="13467.7" y2="9227.43" gradientUnits="userSpaceOnUse">
<stop stop-color="#808080" stop-opacity="0.25"/>
<stop offset="0.54" stop-color="#808080" stop-opacity="0.12"/>
<stop offset="1" stop-color="#808080" stop-opacity="0.1"/>
</linearGradient>
<linearGradient id="paint2_linear" x1="19262.1" y1="14834.2" x2="19242.5" y2="9229.97" gradientUnits="userSpaceOnUse">
<stop stop-color="#808080" stop-opacity="0.25"/>
<stop offset="0.54" stop-color="#808080" stop-opacity="0.12"/>
<stop offset="1" stop-color="#808080" stop-opacity="0.1"/>
</linearGradient>
<linearGradient id="paint3_linear" x1="25037.2" y1="14836.8" x2="25017.6" y2="9232.51" gradientUnits="userSpaceOnUse">
<stop stop-color="#808080" stop-opacity="0.25"/>
<stop offset="0.54" stop-color="#808080" stop-opacity="0.12"/>
<stop offset="1" stop-color="#808080" stop-opacity="0.1"/>
</linearGradient>
<linearGradient id="paint4_linear" x1="13463.7" y1="7963.92" x2="13444.2" y2="2359.64" gradientUnits="userSpaceOnUse">
<stop stop-color="#808080" stop-opacity="0.25"/>
<stop offset="0.54" stop-color="#808080" stop-opacity="0.12"/>
<stop offset="1" stop-color="#808080" stop-opacity="0.1"/>
</linearGradient>
<linearGradient id="paint5_linear" x1="24973.7" y1="7851.34" x2="24954.2" y2="2247.06" gradientUnits="userSpaceOnUse">
<stop stop-color="#808080" stop-opacity="0.25"/>
<stop offset="0.54" stop-color="#808080" stop-opacity="0.12"/>
<stop offset="1" stop-color="#808080" stop-opacity="0.1"/>
</linearGradient>
<linearGradient id="paint6_linear" x1="19228.8" y1="7917.19" x2="19209.2" y2="2312.91" gradientUnits="userSpaceOnUse">
<stop stop-color="#808080" stop-opacity="0.25"/>
<stop offset="0.54" stop-color="#808080" stop-opacity="0.12"/>
<stop offset="1" stop-color="#808080" stop-opacity="0.1"/>
</linearGradient>
<linearGradient id="paint7_linear" x1="27443.8" y1="42089.1" x2="27443.8" y2="24859" gradientUnits="userSpaceOnUse">
<stop stop-color="#808080" stop-opacity="0.25"/>
<stop offset="0.54" stop-color="#808080" stop-opacity="0.12"/>
<stop offset="1" stop-color="#808080" stop-opacity="0.1"/>
</linearGradient>
<linearGradient id="paint8_linear" x1="1503.84" y1="2367.35" x2="1503.84" y2="2248.25" gradientUnits="userSpaceOnUse">
<stop stop-color="#808080" stop-opacity="0.25"/>
<stop offset="0.54" stop-color="#808080" stop-opacity="0.12"/>
<stop offset="1" stop-color="#808080" stop-opacity="0.1"/>
</linearGradient>
<linearGradient id="paint9_linear" x1="6888.77" y1="2367.35" x2="6888.77" y2="2248.25" gradientUnits="userSpaceOnUse">
<stop stop-color="#808080" stop-opacity="0.25"/>
<stop offset="0.54" stop-color="#808080" stop-opacity="0.12"/>
<stop offset="1" stop-color="#808080" stop-opacity="0.1"/>
</linearGradient>
<linearGradient id="paint10_linear" x1="13956.6" y1="21326.5" x2="13956.6" y2="15997.7" gradientUnits="userSpaceOnUse">
<stop stop-color="#808080" stop-opacity="0.25"/>
<stop offset="0.54" stop-color="#808080" stop-opacity="0.12"/>
<stop offset="1" stop-color="#808080" stop-opacity="0.1"/>
</linearGradient>
<linearGradient id="paint11_linear" x1="9944.39" y1="14636.7" x2="9944.39" y2="11948.6" gradientUnits="userSpaceOnUse">
<stop stop-color="#808080" stop-opacity="0.25"/>
<stop offset="0.54" stop-color="#808080" stop-opacity="0.12"/>
<stop offset="1" stop-color="#808080" stop-opacity="0.1"/>
</linearGradient>
<clipPath id="clip0">
<rect width="11.1999" height="11.1999" fill="white" transform="translate(104.001 66.9148)"/>
</clipPath>
<clipPath id="clip1">
<rect width="11.1999" height="11.1999" fill="white" transform="translate(142.813 105.728)"/>
</clipPath>
</defs>
</svg>
