<?xml version="1.0" ?><!DOCTYPE svg  PUBLIC '-//W3C//DTD SVG 1.1//EN'  'http://www.w3.org/Graphics/SVG/1.1/DTD/svg11.dtd'><svg enable-background="new 0 0 32 32" height="32px" id="Слой_1" version="1.1" viewBox="0 0 32 32" width="32px" xml:space="preserve" xmlns="http://www.w3.org/2000/svg" xmlns:xlink="http://www.w3.org/1999/xlink"><g id="Arrow_Drop_Left_Circle"><path clip-rule="evenodd" d="M32,16c0-8.836-7.164-16-16-16C7.163,0,0,7.164,0,16   c0,8.837,7.163,16,16,16C24.836,32,32,24.837,32,16z M1.969,16C1.969,8.28,8.28,2,16,2c7.72,0,14,6.28,14,14c0,7.72-6.28,14-14,14   C8.28,30,1.969,23.72,1.969,16z" fill="#121313" fill-rule="evenodd"/><path clip-rule="evenodd" d="M18.92,23.374c0.056-0.134,0.079-0.276,0.075-0.419V9.013   c0.024-0.887-1.07-1.38-1.702-0.742l-6.899,6.999c-0.382,0.386-0.382,1.043,0,1.429l6.892,6.991   C17.779,24.207,18.654,24.034,18.92,23.374C18.975,23.24,18.772,23.741,18.92,23.374C18.975,23.24,18.772,23.741,18.92,23.374   C18.975,23.24,18.772,23.741,18.92,23.374z M12.512,15.984l4.494-4.559v9.118L12.512,15.984z" fill="#121313" fill-rule="evenodd"/></g><g/><g/><g/><g/><g/><g/></svg>