<?xml version="1.0" standalone="no"?><!DOCTYPE svg PUBLIC "-//W3C//DTD SVG 1.1//EN" "http://www.w3.org/Graphics/SVG/1.1/DTD/svg11.dtd"><svg class="icon" height="512" viewBox="0 0 1024 1024" version="1.1" xmlns="http://www.w3.org/2000/svg"><path d="M73.144899 73.144899h256V0H36.565302A36.565302 36.565302 0 0 0 0 36.565302v292.579597h73.144899V73.144899zM987.434698 0H694.855101v73.144899h256v256h73.144899V36.565302A36.565302 36.565302 0 0 0 987.434698 0zM73.144899 694.855101H0v292.579597a36.565302 36.565302 0 0 0 36.565302 36.565302h292.579597v-73.144899H73.144899V694.855101z m877.710202 256H694.855101v73.144899h292.579597a36.565302 36.565302 0 0 0 36.565302-36.565302V694.855101h-73.144899v256zM0 475.720587h1024v73.1449H0V475.720587z" /></svg>