<?xml version="1.0" encoding="utf-8"?>
<!-- Generator: Adobe Illustrator 22.0.0, SVG Export Plug-In . SVG Version: 6.00 Build 0)  -->
<svg version="1.1" id="Layer_1" xmlns="http://www.w3.org/2000/svg" xmlns:xlink="http://www.w3.org/1999/xlink" x="0px" y="0px"
	 viewBox="0 0 600 600" style="enable-background:new 0 0 600 600;" xml:space="preserve">
<style type="text/css">
	.st0{fill:none;stroke:#FFFFFF;stroke-width:2;stroke-linecap:round;stroke-linejoin:round;stroke-dasharray:0.9977,7.9814;}
	.st1{opacity:0.8;}
	.st2{fill:none;stroke:#FFFFFF;stroke-width:2;stroke-linecap:round;stroke-linejoin:round;stroke-dasharray:1.0005,8.0037;}
	.st3{opacity:0.6;}
	.st4{fill:none;stroke:#FFFFFF;stroke-width:2;stroke-linecap:round;stroke-linejoin:round;stroke-dasharray:1.002,8.016;}
	.st5{opacity:0.4;}
	.st6{fill:none;stroke:#FFFFFF;stroke-width:2;stroke-linecap:round;stroke-linejoin:round;stroke-dasharray:0.9968,7.9746;}
	.st7{opacity:0.2;}
	.st8{fill:none;stroke:#FFFFFF;stroke-width:2;stroke-linecap:round;stroke-linejoin:round;stroke-dasharray:0.9995,7.9962;}
	.st9{opacity:0.1;}
	.st10{fill:none;stroke:#FFFFFF;stroke-width:2;stroke-linecap:round;stroke-linejoin:round;stroke-dasharray:1.0023,8.0187;}
	.st11{fill:#FFFFFF;}
	.st12{opacity:0.8;fill:#FFFFFF;}
	.st13{fill:#005082;}
	.st14{opacity:0.6;fill:#005082;}
	.st15{opacity:0.6;fill:none;stroke:#FFFFFF;stroke-width:2;stroke-linecap:round;stroke-linejoin:round;stroke-miterlimit:10;}
	.st16{opacity:0.4;fill:none;stroke:#FFFFFF;stroke-width:2;stroke-linecap:round;stroke-linejoin:round;stroke-miterlimit:10;}
	.st17{opacity:0.2;fill:none;stroke:#FFFFFF;stroke-width:2;stroke-linecap:round;stroke-linejoin:round;stroke-miterlimit:10;}
	.st18{opacity:0.1;fill:none;stroke:#FFFFFF;stroke-width:2;stroke-linecap:round;stroke-linejoin:round;stroke-miterlimit:10;}
	.st19{fill:#B3FF30;}
	.st20{clip-path:url(#SVGID_2_);}
	.st21{fill:#8C4054;}
	.st22{fill:#EDBBA4;}
	.st23{fill:#FFC9B0;}
	.st24{fill:#FF26D0;}
	.st25{opacity:0.2;fill:#FFFFFF;}
	.st26{fill:#FF9121;}
	.st27{clip-path:url(#SVGID_4_);}
	.st28{fill:#825548;}
	.st29{fill:#52B6DE;}
	.st30{fill:#29EDFF;}
	.st31{clip-path:url(#SVGID_6_);}
	.st32{fill:#7D3C30;}
	.st33{fill:#138A61;}
	.st34{fill:#DBFCFF;}
	.st35{fill:#3B352E;}
	.st36{fill:#B6F089;}
	.st37{fill:#F74F5A;}
	.st38{clip-path:url(#SVGID_8_);}
	.st39{fill:#544747;}
	.st40{fill:#51576B;}
	.st41{fill:#626A82;}
	.st42{fill:#FF6EFA;}
	.st43{clip-path:url(#SVGID_10_);}
	.st44{fill:#A84126;}
	.st45{fill:#00E0A5;}
	.st46{fill:#1EA600;}
	.st47{fill:#14C4FF;}
	.st48{clip-path:url(#SVGID_12_);}
	.st49{fill:#7D450B;}
	.st50{fill:#E8B817;}
	.st51{fill:#00A4DB;}
	.st52{clip-path:url(#SVGID_14_);}
	.st53{fill:#B142FF;}
	.st54{fill:#00D9A3;}
	.st55{clip-path:url(#SVGID_16_);}
	.st56{fill:#8F3820;}
	.st57{fill:#212842;}
	.st58{fill:#939BB8;}
	.st59{fill:#FF4549;}
	.st60{fill:#4296C9;}
	.st61{fill:#006BAD;}
	.st62{fill:#00BBFF;}
	.st63{fill:#0062A8;}
	.st64{fill:none;stroke:#FFFFFF;stroke-width:3;stroke-linecap:round;stroke-linejoin:round;stroke-miterlimit:10;}
	.st65{fill:none;stroke:#0062A8;stroke-width:2;stroke-miterlimit:10;}
	.st66{fill:#0096DB;stroke:#FFFFFF;stroke-width:4;stroke-linecap:round;stroke-linejoin:round;stroke-miterlimit:10;}
	.st67{fill:none;stroke:#FFFFFF;stroke-width:4;stroke-linecap:round;stroke-linejoin:round;stroke-miterlimit:10;}
	.st68{opacity:0.16;fill:#FFFFFF;}
</style>
<g>
	<g>
		<g>
			<ellipse class="st0" cx="302.1" cy="303.8" rx="110.8" ry="109.2"/>
		</g>
		<g class="st1">
			<ellipse class="st2" cx="302.1" cy="303.8" rx="142.9" ry="140.8"/>
		</g>
		<g class="st3">
			<ellipse class="st4" cx="302.1" cy="303.8" rx="176.4" ry="173.8"/>
		</g>
		<g class="st5">
			<ellipse class="st6" cx="302.1" cy="303.8" rx="210" ry="206.9"/>
		</g>
		<g class="st7">
			<ellipse class="st8" cx="302.1" cy="303.8" rx="243.7" ry="240.2"/>
		</g>
		<g class="st9">
			<ellipse class="st10" cx="302.1" cy="303.8" rx="279.1" ry="275"/>
		</g>
	</g>
	<polygon class="st11" points="165.5,520.3 166.6,523 169.5,524.1 166.6,525.2 165.5,528 164.4,525.2 161.6,524.1 164.4,523 	"/>
	<polygon class="st11" points="504.5,185.7 505.6,188.5 508.4,189.6 505.6,190.7 504.5,193.4 503.3,190.7 500.5,189.6 503.3,188.5 	
		"/>
	<polygon class="st11" points="255.4,387.5 256.5,390.4 259.5,391.6 256.5,392.7 255.4,395.7 254.2,392.7 251.3,391.6 254.2,390.4 	
		"/>
	<polygon class="st11" points="532.1,98 533.3,100.7 536.1,101.8 533.3,102.9 532.1,105.7 531,102.9 528.2,101.8 531,100.7 	"/>
	<polygon class="st11" points="399.9,56.1 401.7,60.8 406.5,62.7 401.7,64.5 399.9,69.2 398,64.5 393.2,62.7 398,60.8 	"/>
	<polygon class="st11" points="45.9,193 47.8,197.7 52.6,199.6 47.8,201.4 45.9,206.1 44.1,201.4 39.3,199.6 44.1,197.7 	"/>
	<polygon class="st11" points="385.8,549.1 387.7,553.8 392.4,555.6 387.7,557.4 385.8,562.1 383.9,557.4 379.2,555.6 383.9,553.8 	
		"/>
	<polygon class="st11" points="576,278.7 577.9,283.4 582.6,285.3 577.9,287.1 576,291.8 574.1,287.1 569.4,285.3 574.1,283.4 	"/>
	<polygon class="st11" points="45.3,454.1 47.1,458.8 51.9,460.7 47.1,462.5 45.3,467.2 43.4,462.5 38.6,460.7 43.4,458.8 	"/>
	<ellipse class="st12" cx="46" cy="399.5" rx="2.1" ry="2.1"/>
	<path class="st12" d="M571.2,454.9c0,1.1-0.9,2.1-2.1,2.1c-1.2,0-2.1-0.9-2.1-2.1c0-1.1,0.9-2.1,2.1-2.1
		C570.3,452.8,571.2,453.7,571.2,454.9z"/>
	<path class="st12" d="M413,479.3c0,1.1-0.9,2.1-2.1,2.1c-1.2,0-2.1-0.9-2.1-2.1c0-1.1,0.9-2.1,2.1-2.1
		C412.1,477.2,413,478.1,413,479.3z"/>
	<ellipse class="st12" cx="315.1" cy="173.9" rx="2.1" ry="2.1"/>
	<path class="st12" d="M276.6,575.6c0,1.1-0.9,2.1-2.1,2.1c-1.2,0-2.1-0.9-2.1-2.1c0-1.1,0.9-2.1,2.1-2.1
		C275.7,573.6,276.6,574.5,276.6,575.6z"/>
	<path class="st12" d="M264.5,433.4c0,1.1-0.9,2.1-2.1,2.1c-1.2,0-2.1-0.9-2.1-2.1c0-1.1,0.9-2.1,2.1-2.1
		C263.6,431.4,264.5,432.3,264.5,433.4z"/>
	<polygon class="st13" points="517.4,140.1 519.3,144.8 524,146.6 519.3,148.5 517.4,153.1 515.5,148.5 510.8,146.6 515.5,144.8 	
		"/>
	<polygon class="st13" points="322.3,208.6 324.2,213.3 329,215.1 324.2,217 322.3,221.7 320.5,217 315.7,215.1 320.5,213.3 	"/>
	<polygon class="st13" points="228.2,467.4 230,472.1 234.8,473.9 230,475.8 228.2,480.4 226.3,475.8 221.5,473.9 226.3,472.1 	"/>
	<polygon class="st13" points="496.2,483.6 498.1,488.2 502.8,490.1 498.1,491.9 496.2,496.6 494.3,491.9 489.6,490.1 494.3,488.2 	
		"/>
	<polygon class="st13" points="89.6,175.5 91.5,180.2 96.3,182 91.5,183.9 89.6,188.5 87.8,183.9 83,182 87.8,180.2 	"/>
	<polygon class="st13" points="215,540 216.8,544.7 221.6,546.5 216.8,548.4 215,553 213.1,548.4 208.4,546.5 213.1,544.7 	"/>
	<path class="st14" d="M473.7,542.1c0,2.1-1.7,3.7-3.8,3.7c-2.1,0-3.8-1.7-3.8-3.7c0-2.1,1.7-3.7,3.8-3.7
		C472,538.4,473.7,540.1,473.7,542.1z"/>
	<path class="st14" d="M120,500.6c0,2.1-1.7,3.7-3.8,3.7c-2.1,0-3.8-1.7-3.8-3.7c0-2.1,1.7-3.7,3.8-3.7
		C118.3,496.9,120,498.6,120,500.6z"/>
	<path class="st14" d="M201.8,24.3c0,2.1-1.7,3.7-3.8,3.7c-2.1,0-3.8-1.7-3.8-3.7s1.7-3.7,3.8-3.7C200.1,20.6,201.8,22.3,201.8,24.3
		z"/>
	<ellipse class="st14" cx="411.9" cy="239.7" rx="3.8" ry="3.7"/>
	<path class="st14" d="M175.7,277c0,2.1-1.7,3.7-3.8,3.7c-2.1,0-3.8-1.7-3.8-3.7c0-2.1,1.7-3.7,3.8-3.7
		C174,273.3,175.7,274.9,175.7,277z"/>
	<path class="st14" d="M409.6,378.1c0,2.1-1.7,3.7-3.8,3.7c-2.1,0-3.8-1.7-3.8-3.7c0-2.1,1.7-3.7,3.8-3.7
		C407.9,374.4,409.6,376,409.6,378.1z"/>
	<path class="st14" d="M562.7,346.7c0,2.1-1.7,3.7-3.8,3.7c-2.1,0-3.8-1.7-3.8-3.7c0-2.1,1.7-3.7,3.8-3.7
		C561,343,562.7,344.7,562.7,346.7z"/>
	<path class="st14" d="M363.3,84.2c0,2.1-1.7,3.7-3.8,3.7c-2.1,0-3.8-1.7-3.8-3.7c0-2.1,1.7-3.7,3.8-3.7
		C361.6,80.4,363.3,82.1,363.3,84.2z"/>
	<g>
		<ellipse class="st15" cx="325.8" cy="481.3" rx="46.9" ry="46.2"/>
		<ellipse class="st16" cx="325.8" cy="481.3" rx="55.9" ry="55"/>
		<ellipse class="st17" cx="325.8" cy="481.3" rx="64.8" ry="63.9"/>
		<ellipse class="st18" cx="325.8" cy="481.3" rx="74.3" ry="73.2"/>
	</g>
	<g>
		<ellipse class="st15" cx="498.4" cy="280.2" rx="46.9" ry="46.2"/>
		<ellipse class="st16" cx="498.4" cy="280.2" rx="55.9" ry="55"/>
		<ellipse class="st17" cx="498.4" cy="280.2" rx="64.8" ry="63.9"/>
		<ellipse class="st18" cx="498.4" cy="280.2" rx="74.3" ry="73.2"/>
	</g>
	<g>
		<ellipse class="st15" cx="412.4" cy="156.4" rx="46.9" ry="46.2"/>
		<ellipse class="st16" cx="412.4" cy="156.4" rx="55.9" ry="55"/>
		<ellipse class="st17" cx="412.4" cy="156.4" rx="64.8" ry="63.9"/>
		<ellipse class="st18" cx="412.4" cy="156.4" rx="74.3" ry="73.2"/>
	</g>
	<g>
		<ellipse class="st15" cx="264.1" cy="95.1" rx="46.9" ry="46.2"/>
		<ellipse class="st16" cx="264.1" cy="95.1" rx="55.9" ry="55"/>
		<ellipse class="st17" cx="264.1" cy="95.1" rx="64.8" ry="63.9"/>
		<ellipse class="st18" cx="264.1" cy="95.1" rx="74.3" ry="73.2"/>
	</g>
	<g>
		<ellipse class="st15" cx="197.1" cy="195.1" rx="46.9" ry="46.2"/>
		<ellipse class="st16" cx="197.1" cy="195.1" rx="55.9" ry="55"/>
		<ellipse class="st17" cx="197.1" cy="195.1" rx="64.8" ry="63.9"/>
		<ellipse class="st18" cx="197.1" cy="195.1" rx="74.3" ry="73.2"/>
	</g>
	<g>
		<path class="st15" d="M136.9,314.9c0,25.5-18.7,44.1-44.7,44.1c-25.9,0-46.9-20.7-46.9-46.2c0-25.5,21-46.2,46.9-46.2
			C118.1,266.5,136.9,289.3,136.9,314.9z"/>
		<ellipse class="st16" cx="92.2" cy="312.7" rx="55.9" ry="55"/>
		<ellipse class="st17" cx="92.2" cy="312.7" rx="64.8" ry="63.9"/>
		<ellipse class="st18" cx="92.2" cy="312.7" rx="74.3" ry="73.2"/>
	</g>
	<g>
		<ellipse class="st15" cx="162.2" cy="419.1" rx="46.9" ry="46.2"/>
		<ellipse class="st16" cx="162.2" cy="419.1" rx="55.9" ry="55"/>
		<ellipse class="st17" cx="162.2" cy="419.1" rx="64.8" ry="63.9"/>
		<ellipse class="st18" cx="162.2" cy="419.1" rx="74.3" ry="73.2"/>
	</g>
	<g>
		<ellipse class="st15" cx="481.2" cy="424.1" rx="46.9" ry="46.2"/>
		<ellipse class="st16" cx="481.2" cy="424.1" rx="55.9" ry="55"/>
		<ellipse class="st17" cx="481.2" cy="424.1" rx="64.8" ry="63.9"/>
		<ellipse class="st18" cx="481.2" cy="424.1" rx="74.3" ry="73.2"/>
	</g>
	<g>
		<ellipse class="st19" cx="498.4" cy="280.2" rx="39.4" ry="38.8"/>
		<g>
			<defs>
				<ellipse id="SVGID_1_" cx="498.4" cy="280.2" rx="39.4" ry="38.8"/>
			</defs>
			<clipPath id="SVGID_2_">
				<use xlink:href="#SVGID_1_"  style="overflow:visible;"/>
			</clipPath>
			<g class="st20">
				<g>
					<path class="st21" d="M498.4,261.4l-18.5,9.9v13.9c0,0,3.7,8.1,18.5,8.1c14.8,0,18.5-8.1,18.5-8.1v-13.9L498.4,261.4z"/>
					<g>
						<path class="st22" d="M482.1,271.4c-0.9,0.2-1.2,2-0.7,4c0.5,2,1.6,3.4,2.4,3.2c0.9-0.2,1.2-2,0.7-4
							C484.1,272.6,483,271.1,482.1,271.4z"/>
						<path class="st22" d="M514.7,271.4c-0.9-0.2-1.9,1.2-2.4,3.2c-0.5,2-0.2,3.8,0.7,4c0.9,0.2,1.9-1.2,2.4-3.2
							S515.6,271.6,514.7,271.4z"/>
					</g>
					<rect x="494.6" y="286.4" class="st22" width="7.7" height="9.5"/>
					<path class="st23" d="M508.2,294c-2.9-1.1-6.2-1.7-9.8-1.7c-3.6,0-6.9,0.6-9.8,1.7c0.7,2.9,3,7.1,9.8,7.1
						C505.3,301.2,507.5,296.9,508.2,294z"/>
					<g>
						<path class="st24" d="M488.6,294C488.6,294,488.6,294,488.6,294C488.6,294,488.7,294,488.6,294C488.7,294,488.6,294,488.6,294
							z"/>
						<path class="st24" d="M508.2,294c-0.7,2.9-3,7.1-9.8,7.1c-6.8,0-9.1-4.2-9.8-7.1c-6,2.3-10.1,7-10.1,13.5V319h39.7v-11.5
							C518.3,301,514.2,296.4,508.2,294z"/>
						<path class="st24" d="M508.2,294C508.2,294,508.2,294,508.2,294C508.2,294,508.2,294,508.2,294C508.2,294,508.2,294,508.2,294
							z"/>
					</g>
					<ellipse class="st23" cx="498.4" cy="271.8" rx="14.7" ry="16.2"/>
					<path class="st21" d="M498.4,251.9c-13.4,0-18.5,11-18.5,17c0,3.2,0,4.9,0,4.9c10.9-1.5,18.5-12.1,18.5-12.1
						s7.6,10.7,18.5,12.1c0,0,0-1.7,0-4.9C516.9,262.9,511.8,251.9,498.4,251.9z"/>
				</g>
				<path class="st25" d="M498.4,251.9c-13.4,0-18.5,11-18.5,17c0,0.9,0,1.7,0,2.4v2.5v11.3c0,0,2.7,5.9,12.7,7.7
					c-1.4,0.3-2.8,0.7-4,1.1c0,0,0,0,0,0c0,0,0,0-0.1,0c0,0,0,0,0,0c-6,2.3-10.1,7-10.1,13.5V319h19.9V251.9z"/>
			</g>
			<use xlink:href="#SVGID_1_"  style="overflow:visible;fill:none;stroke:#FFFFFF;stroke-width:2;stroke-miterlimit:10;"/>
		</g>
	</g>
	<g>
		<ellipse class="st26" cx="197.1" cy="195.1" rx="39.4" ry="38.8"/>
		<g>
			<defs>
				<ellipse id="SVGID_3_" cx="197.1" cy="195.1" rx="39.4" ry="38.8"/>
			</defs>
			<clipPath id="SVGID_4_">
				<use xlink:href="#SVGID_3_"  style="overflow:visible;"/>
			</clipPath>
			<g class="st27">
				<g>
					<g>
						<path class="st28" d="M180.7,184.8v3.8l3.8,3.3c0,0-0.2-9-0.4-8.9C183.9,183.1,180.7,184.8,180.7,184.8z"/>
						<path class="st28" d="M213.5,184.8v3.8l-3.8,3.3c0,0,0.2-9,0.4-8.9C210.3,183.1,213.5,184.8,213.5,184.8z"/>
					</g>
					<g>
						<path class="st22" d="M180.8,186.3c-0.9,0.2-1.2,2-0.7,4c0.5,2,1.6,3.4,2.4,3.2c0.9-0.2,1.2-2,0.7-4
							C182.8,187.6,181.7,186.1,180.8,186.3z"/>
						<path class="st22" d="M213.4,186.3c-0.9-0.2-1.9,1.2-2.4,3.2c-0.5,2-0.2,3.8,0.7,4c0.9,0.2,1.9-1.2,2.4-3.2
							C214.6,188.3,214.3,186.5,213.4,186.3z"/>
					</g>
					<rect x="193.3" y="201.4" class="st22" width="7.7" height="9.5"/>
					<ellipse class="st23" cx="197.1" cy="186.8" rx="14.7" ry="16.2"/>
					<path class="st28" d="M197.1,166.9c-12,0-16.5,10.5-16.5,16.3v2.3c9.7-1.4,16.5-10.1,16.5-10.1s6.8,8.6,16.5,10.1v-2.3
						C213.6,177.4,209.1,166.9,197.1,166.9z"/>
					<path class="st23" d="M204.9,208.3c-2.4-0.7-5-1.1-7.7-1.1c-2.8,0-5.4,0.4-7.7,1.1c1.2,2.1,4.2,3.6,7.7,3.6
						C200.6,211.9,203.6,210.4,204.9,208.3z"/>
					<path class="st29" d="M206.9,209C206.9,209,206.9,209,206.9,209C206.9,209,206.9,209,206.9,209L206.9,209
						c-0.7-0.3-1.4-0.5-2.1-0.7c-1.3,2.1-4.2,3.7-7.7,3.7c-3.5,0-6.4-1.5-7.7-3.7c-0.7,0.2-1.4,0.4-2.1,0.7l0,0c0,0,0,0-0.1,0
						c0,0,0,0,0,0c-6,2.3-10.1,7-10.1,13.5V234H217v-11.5C217,216,212.9,211.3,206.9,209z"/>
				</g>
				<path class="st25" d="M197.1,166.9c-12,0-16.5,10.5-16.5,16.3v2.3c0,0,0,0,0.1,0v0.9c-0.8,0.3-1,2-0.6,3.9
					c0.5,2,1.6,3.4,2.4,3.2c0.4-0.1,0.6-0.5,0.8-1c1.7,4.8,5.3,8.6,9.9,9.9v5c-1.3,0.2-2.6,0.4-3.8,0.8c0,0,0,0,0,0
					c-0.7,0.2-1.4,0.4-2.1,0.7l0,0c0,0,0,0-0.1,0c0,0,0,0,0,0c-6,2.3-10.1,7-10.1,13.5V234h19.9V166.9z"/>
			</g>
			<use xlink:href="#SVGID_3_"  style="overflow:visible;fill:none;stroke:#FFFFFF;stroke-width:2;stroke-miterlimit:10;"/>
		</g>
	</g>
	<g>
		<ellipse class="st30" cx="481.2" cy="424.1" rx="39.4" ry="38.8"/>
		<g>
			<defs>
				<ellipse id="SVGID_5_" cx="481.2" cy="424.1" rx="39.4" ry="38.8"/>
			</defs>
			<clipPath id="SVGID_6_">
				<use xlink:href="#SVGID_5_"  style="overflow:visible;"/>
			</clipPath>
			<g class="st31">
				<g>
					<g>
						<path class="st32" d="M464.8,413.8v3.8l3.8,3.3c0,0-0.2-9-0.4-8.9C468,412.1,464.8,413.8,464.8,413.8z"/>
						<path class="st32" d="M497.6,413.8v3.8l-3.8,3.3c0,0,0.2-9,0.4-8.9C494.4,412.1,497.6,413.8,497.6,413.8z"/>
					</g>
					<g>
						<path class="st22" d="M464.9,415.3c-0.9,0.2-1.2,2-0.7,4c0.5,2,1.6,3.4,2.4,3.2c0.9-0.2,1.2-2,0.7-4
							C466.9,416.6,465.8,415.1,464.9,415.3z"/>
						<path class="st22" d="M497.5,415.3c-0.9-0.2-1.9,1.2-2.4,3.2c-0.5,2-0.2,3.8,0.7,4c0.9,0.2,1.9-1.2,2.4-3.2
							C498.6,417.3,498.3,415.5,497.5,415.3z"/>
					</g>
					<rect x="477.4" y="430.4" class="st22" width="7.7" height="9.5"/>
					<ellipse class="st23" cx="481.2" cy="415.8" rx="14.7" ry="16.2"/>
					<path class="st32" d="M481.2,395.9c-12,0-16.5,10.5-16.5,16.3v2.3c10-1.5,16.5-10.8,16.5-10.8s7.3,9.7,16.5,10.8v-2.3
						C497.7,406.4,493.2,395.9,481.2,395.9z"/>
					<path class="st33" d="M491,438L491,438C491,438,491,438,491,438L491,438c-0.7-0.3-1.4-0.5-2.1-0.7c0,0,0,0,0,0
						c-2.4-0.7-5-1-7.7-1c-2.7,0-5.3,0.4-7.7,1c0,0,0,0,0,0c-0.7,0.2-1.4,0.4-2.1,0.7l0,0c0,0,0,0-0.1,0l0,0
						c-6,2.3-10.1,7-10.1,13.5V463h39.7v-11.5C501.1,445,497,440.4,491,438z"/>
					<g>
						<path class="st34" d="M469.7,414.8c0,0,3.5-1.2,10.2-0.2h2.5c0,0,4.9-0.8,10.2,0.2c0,0,0.6,1.6,0.2,3.4
							c-0.4,1.8-0.5,3.6-2.2,3.8c-1.7,0.2-4.8,0.4-5.6,0c0,0-1.6-1.9-2.1-2.7c-0.4-0.9-1-2.9-1-2.9h-1.4l-0.7,1.2c0,0-1,3.6-2.6,4.3
							c-1.6,0.7-5.2,0.2-5.8,0.1c-0.6-0.1-1.5-1.1-2-2.9C469.1,417.1,469.7,414.8,469.7,414.8z"/>
						<path class="st35" d="M493.4,414.1c-0.7-0.1-4.5-0.3-6.4-0.3s-3.2,0.2-5.7,0.3c-2.5-0.1-3.8-0.3-5.7-0.3
							c-1.9,0-5.7,0.2-6.4,0.3c-0.7,0.1-1.1,0.1-1.1,0.6s0.2,1.9,0.2,1.9c1,0.5,0.9,2.2,1.3,3.3c0.3,1.2,0.6,1.7,1.8,2.2
							c1.2,0.5,3.6,0.4,4.6,0.4c1-0.1,2-0.3,2.6-1.2c0.7-0.9,1.6-2.8,1.8-3.4c0.4-1.1,0.5-1.3,1-1.3c0.5,0,0.7,0.2,1,1.3
							c0.2,0.6,1.1,2.6,1.8,3.4c0.7,0.9,1.6,1.1,2.6,1.2c1,0.1,3.5,0.1,4.6-0.4c1.2-0.5,1.4-1.1,1.8-2.2c0.3-1.2,0.2-2.8,1.3-3.3
							c0,0,0.2-1.4,0.2-1.9S494.1,414.1,493.4,414.1z M478.5,420.1c-0.6,1-1.1,1.4-2.3,1.6c-1.2,0.2-2.7,0.1-3.8,0
							c-1.1-0.1-1.7-0.6-2-1.2c-0.3-0.6-0.6-2.6-0.6-3.5c0-0.9,0-1.6,0.5-1.8c0.5-0.2,1.5-0.5,4-0.6c1.1,0,4.8,0.1,5.1,1
							C480,416.7,479.1,419.1,478.5,420.1z M492.6,417c0,0.9-0.3,2.9-0.6,3.5c-0.3,0.6-0.9,1.1-2,1.2c-1.1,0.1-2.6,0.2-3.8,0
							c-1.2-0.2-1.6-0.6-2.3-1.6c-0.6-1-1.5-3.4-1-4.6c0.3-0.8,4-1,5.1-1c2.5,0.1,3.5,0.3,4,0.6C492.6,415.4,492.6,416,492.6,417z"
							/>
					</g>
					<g>
						<path class="st35" d="M469,415.2c0,0.2-0.2,0.4-0.4,0.4h-2.4c-0.2,0-0.4-0.2-0.4-0.4l0,0c0-0.2,0.2-0.4,0.4-0.4h2.4
							C468.8,414.7,469,414.9,469,415.2L469,415.2z"/>
						<path class="st35" d="M496.7,415.2c0,0.2-0.2,0.4-0.4,0.4h-2.4c-0.2,0-0.4-0.2-0.4-0.4l0,0c0-0.2,0.2-0.4,0.4-0.4h2.4
							C496.5,414.7,496.7,414.9,496.7,415.2L496.7,415.2z"/>
					</g>
					<g>
						<polygon class="st36" points="481.2,436.3 477,441.8 473.1,437.3 476.4,434.7 						"/>
						<polygon class="st36" points="481.2,436.3 485.4,441.8 489.3,437.3 486,434.7 						"/>
					</g>
					<path class="st32" d="M481.9,401.9c0,0-1.9,7.2-7.3,11.3c0,0,3.3-3.4,1.2-6.7L481.9,401.9z"/>
				</g>
				<path class="st25" d="M481.2,395.9c-11.9,0-16.4,10.5-16.4,16.3v2.3c0,0,0,0,0.1,0v0.9c-0.8,0.3-1,2-0.6,3.9
					c0.5,2,1.6,3.4,2.4,3.2c0.4-0.1,0.6-0.5,0.8-1c1.7,4.8,5.3,8.6,9.9,9.9v3.5l-0.9-0.3l-3.3,2.6l0.1,0.1c-0.6,0.2-1.2,0.4-1.8,0.6
					l0,0c0,0,0,0-0.1,0c0,0,0,0,0,0c-6,2.3-10.1,7-10.1,13.5V463h19.8V395.9z"/>
			</g>
			<use xlink:href="#SVGID_5_"  style="overflow:visible;fill:none;stroke:#FFFFFF;stroke-width:2;stroke-miterlimit:10;"/>
		</g>
	</g>
	<g>
		<ellipse class="st37" cx="412.4" cy="156.4" rx="39.4" ry="38.8"/>
		<g>
			<defs>
				<ellipse id="SVGID_7_" cx="412.4" cy="156.4" rx="39.4" ry="38.8"/>
			</defs>
			<clipPath id="SVGID_8_">
				<use xlink:href="#SVGID_7_"  style="overflow:visible;"/>
			</clipPath>
			<g class="st38">
				<g>
					<g>
						<path class="st39" d="M396,145.1v4.5l3.8,4c0,0-0.2-10.7-0.4-10.6C399.2,143.1,396,145.1,396,145.1z"/>
						<path class="st39" d="M428.8,145.1v4.5l-3.8,4c0,0,0.2-10.7,0.4-10.6C425.6,143.1,428.8,145.1,428.8,145.1z"/>
					</g>
					<g>
						<path class="st22" d="M396.1,148c-0.9,0.2-1.2,2-0.7,4c0.5,2,1.6,3.4,2.4,3.2c0.9-0.2,1.2-2,0.7-4
							C398,149.2,397,147.8,396.1,148z"/>
						<path class="st22" d="M428.7,148c-0.9-0.2-1.9,1.2-2.4,3.2c-0.5,2-0.2,3.8,0.7,4c0.9,0.2,1.9-1.2,2.4-3.2
							C429.8,150,429.5,148.2,428.7,148z"/>
					</g>
					<rect x="408.5" y="163" class="st22" width="7.7" height="9.5"/>
					<ellipse class="st23" cx="412.4" cy="148.5" rx="14.7" ry="16.2"/>
					<path class="st40" d="M422.2,170.6L422.2,170.6C422.2,170.6,422.1,170.6,422.2,170.6L422.2,170.6c-0.7-0.3-1.4-0.5-2.1-0.7
						c0,0,0,0,0,0c-2.4-0.7-5-1-7.7-1c-2.7,0-5.3,0.4-7.7,1c0,0,0,0,0,0c-0.7,0.2-1.4,0.4-2.1,0.7l0,0c0,0,0,0-0.1,0l0,0
						c-6,2.3-10.1,7-10.1,13.5v11.5h39.7v-11.5C432.2,177.7,428.2,173,422.2,170.6z"/>
					<path class="st39" d="M412.4,128.1c-11.2,0-16.4,6.4-16.4,13.6c0,1.9,0,5.4,0,5.4c3,0.5,5.2-4.1,5.2-4.1
						c0.6,2.6,2.8,4.1,2.8,4.1c-0.7-3.1,1.7-7.3,1.7-7.3c-0.1,2.9,1.5,6.4,1.5,6.4c0.5-2.7,5.1-8.3,5.1-8.3s4.7,5.7,5.1,8.3
						c0,0,1.6-3.5,1.5-6.4c0,0,2.4,4.3,1.7,7.3c0,0,2.3-1.6,2.8-4.1c0,0,2.3,4.6,5.2,4.1c0,0,0-3.5,0-5.4
						C428.8,134.5,423.6,128.1,412.4,128.1z"/>
					<rect x="407.7" y="165.3" class="st41" width="9.3" height="4"/>
				</g>
				<g>
					<path class="st39" d="M407.1,155.9c-3.2,2.1-4.5-0.7-4.5-0.7s2.8,6.6,9.8,2.7v-3.1C412.4,154.8,410.2,153.8,407.1,155.9z"/>
					<path class="st39" d="M417.7,155.9c-3.2-2.1-5.3-1.1-5.3-1.1v3.1c7.1,4,9.8-2.7,9.8-2.7S420.9,158,417.7,155.9z"/>
				</g>
				<path class="st25" d="M412.4,128.1c-11.2,0-16.4,6.4-16.4,13.6c0,0.9,0,2.3,0,3.4v2v0.9c-0.8,0.3-1,2-0.6,3.9
					c0.5,2,1.6,3.4,2.4,3.2c0.4-0.1,0.6-0.5,0.8-1c1.7,4.8,5.3,8.6,9.9,9.9v1.2h-0.8v4h0.1c-1.1,0.2-2.1,0.4-3.1,0.7c0,0,0,0,0,0
					c-0.7,0.2-1.4,0.4-2.1,0.7l0,0c0,0,0,0-0.1,0l0,0c-6,2.3-10.1,7-10.1,13.5v11.5h19.9V128.1z"/>
			</g>
			<use xlink:href="#SVGID_7_"  style="overflow:visible;fill:none;stroke:#FFFFFF;stroke-width:2;stroke-miterlimit:10;"/>
		</g>
	</g>
	<g>
		<ellipse class="st42" cx="325.8" cy="481.3" rx="39.4" ry="38.8"/>
		<g>
			<defs>
				<ellipse id="SVGID_9_" cx="325.8" cy="481.3" rx="39.4" ry="38.8"/>
			</defs>
			<clipPath id="SVGID_10_">
				<use xlink:href="#SVGID_9_"  style="overflow:visible;"/>
			</clipPath>
			<g class="st43">
				<g>
					<path class="st44" d="M343.7,481.3c0-1.8,0-8,0-8l-17.9-0.5l-17.9,0.5c0,0,0,6.2,0,8c0,9-4.4,10.4-8.2,8.9
						c0,0,3.2,11.9,26,11.9s26-11.9,26-11.9C348,491.7,343.7,490.3,343.7,481.3z"/>
					<g>
						<path class="st22" d="M309.5,472.8c-0.9,0.2-1.2,2-0.7,4c0.5,2,1.6,3.4,2.4,3.2c0.9-0.2,1.2-2,0.7-4
							C311.5,474.1,310.4,472.6,309.5,472.8z"/>
						<path class="st22" d="M342.1,472.8c-0.9-0.2-1.9,1.2-2.4,3.2c-0.5,2-0.2,3.8,0.7,4c0.9,0.2,1.9-1.2,2.4-3.2
							C343.2,474.8,342.9,473,342.1,472.8z"/>
					</g>
					<rect x="322" y="487.9" class="st22" width="7.7" height="9.5"/>
					<ellipse class="st23" cx="325.8" cy="473.3" rx="14.7" ry="16.2"/>
					<path class="st45" d="M335.6,495.5L335.6,495.5C335.6,495.5,335.6,495.5,335.6,495.5L335.6,495.5c-0.7-0.3-1.4-0.5-2.1-0.7
						c0,0,0,0,0,0c-2.4-0.7-5-1-7.7-1c-2.7,0-5.3,0.4-7.7,1c0,0,0,0,0,0c-0.7,0.2-1.4,0.4-2.1,0.7l0,0c0,0,0,0-0.1,0l0,0
						c-6,2.3-10.1,7-10.1,13.5v11.5h39.7V509C345.7,502.5,341.6,497.8,335.6,495.5z"/>
					<path class="st44" d="M325.8,453.6c-14.1,0-17.9,8.1-17.9,15.6v3.8v4.2c3.4-1.6,6.1-8.4,6.1-8.4c0.4,3.3-2.7,7.6-2.7,7.6
						c5.3-3.5,8.6-8.7,8.6-8.7c-0.2,5-3.8,8.7-3.8,8.7c7.2-5.5,9.6-13.2,9.6-13.2s2.4,7.7,9.6,13.2c0,0-3.5-3.7-3.8-8.7
						c0,0,3.3,5.1,8.6,8.7c0,0-3-4.3-2.7-7.6c0,0,2.7,6.7,6.1,8.4V473v-3.8C343.7,461.6,340,453.6,325.8,453.6z"/>
					<g>
						<path class="st46" d="M325.8,493.8c0,0-1.1,4.9-5.8,5.5c-4.9,0.6-5.8-3.2-5.8-3.2l6.3-4.3L325.8,493.8z"/>
						<path class="st46" d="M325.8,493.8c0,0,1.1,4.9,5.8,5.5c4.9,0.6,5.8-3.2,5.8-3.2l-6.3-4.3L325.8,493.8z"/>
					</g>
				</g>
				<path class="st25" d="M306,520.5h19.9v-66.9c-14.1,0-17.9,8.1-17.9,15.6v3.8v0.3c0,0,0,1.9,0,3.9c0,1.6,0,3.3,0,4.1
					c0,9-4.4,10.4-8.2,8.9c0,0,1.5,5.7,10.1,9.2c-2.5,2.5-3.9,5.7-3.9,9.6V520.5z"/>
			</g>
			<use xlink:href="#SVGID_9_"  style="overflow:visible;fill:none;stroke:#FFFFFF;stroke-width:2;stroke-miterlimit:10;"/>
		</g>
	</g>
	<g>
		<ellipse class="st47" cx="264.1" cy="95.1" rx="39.4" ry="38.8"/>
		<g>
			<defs>
				<ellipse id="SVGID_11_" cx="264.1" cy="95.1" rx="39.4" ry="38.8"/>
			</defs>
			<clipPath id="SVGID_12_">
				<use xlink:href="#SVGID_11_"  style="overflow:visible;"/>
			</clipPath>
			<g class="st48">
				<g>
					<g>
						<path class="st49" d="M245.6,86.2c0,0-5.4,9.4,0.7,11.3c0,0-3.8,6.1,2.1,8.3c4.8,1.7,6.6-1.1,6.6-1.1s9.6,3.3,7.4-7.1
							C260.4,88.2,245.6,86.2,245.6,86.2z"/>
						<path class="st49" d="M282.7,86.2c0,0,5.4,9.4-0.7,11.3c0,0,3.8,6.1-2.1,8.3c-4.8,1.7-6.6-1.1-6.6-1.1s-9.6,3.3-7.4-7.1
							C267.8,88.2,282.7,86.2,282.7,86.2z"/>
					</g>
					<g>
						<path class="st22" d="M247.8,87c-0.9,0.2-1.2,2-0.7,4c0.5,2,1.6,3.4,2.4,3.2c0.9-0.2,1.2-2,0.7-4
							C249.8,88.2,248.7,86.8,247.8,87z"/>
						<path class="st22" d="M280.4,87c-0.9-0.2-1.9,1.2-2.4,3.2c-0.5,2-0.2,3.8,0.7,4c0.9,0.2,1.9-1.2,2.4-3.2
							C281.5,89,281.2,87.2,280.4,87z"/>
					</g>
					<rect x="260.3" y="102.1" class="st22" width="7.7" height="9.5"/>
					<ellipse class="st23" cx="264.1" cy="87.5" rx="14.7" ry="16.2"/>
					<path class="st49" d="M281.3,83c0,0,0.9-10.8-5.6-11.9c0,0-1.9-6.7-11.6-3.6c-9.7-3.1-11.6,3.6-11.6,3.6
						c-6.4,1.1-5.6,11.9-5.6,11.9c-2.2-0.3-3.2,3.3-1.4,4.5c6,3.9,10.9-4.2,10.9-4.2c7,1.1,7.7-4.8,7.7-4.8s0.7,5.9,7.7,4.8
						c0,0,4.9,8.1,10.9,4.2C284.5,86.3,283.4,82.7,281.3,83z"/>
					<path class="st23" d="M275.2,115.2v-5c-0.4-0.2-0.8-0.4-1.3-0.6l0,0c0,0,0,0-0.1,0c0,0,0,0,0,0c-0.7-0.3-1.4-0.5-2.1-0.7
						c0,0,0,0,0,0c-2.4-0.7-5-1-7.7-1c-2.7,0-5.3,0.4-7.7,1c0,0,0,0,0,0c-0.7,0.2-1.4,0.4-2.1,0.7h0c0,0,0,0-0.1,0l0,0
						c-0.4,0.2-0.9,0.4-1.3,0.6v5l11.1,7.5L275.2,115.2z"/>
					<path class="st50" d="M275.2,110.2v5l-11.1,7.5l-11.1-7.5v-5c-5.3,2.5-8.8,6.9-8.8,13v11.5H284v-11.5c0-6-3.4-10.4-8.6-12.9
						L275.2,110.2z"/>
				</g>
				<path class="st25" d="M244.2,123.2v11.5h19.9V67.6c-9.7-3.1-11.6,3.6-11.6,3.6c-6.4,1.1-5.6,11.9-5.6,11.9c-2-0.3-3,2.7-1.9,4.1
					c-1.2,2.4-3.7,8.8,1.2,10.3c0,0-3.8,6.1,2.1,8.3c4.8,1.7,6.6-1.1,6.6-1.1s3,1,5.3,0.1v3.4c-1.3,0.2-2.6,0.4-3.8,0.8c0,0,0,0,0,0
					c-0.7,0.2-1.4,0.4-2.1,0.7h0c0,0,0,0-0.1,0l0,0c-0.4,0.2-0.9,0.4-1.3,0.6C247.7,112.7,244.2,117.1,244.2,123.2z"/>
			</g>
			<use xlink:href="#SVGID_11_"  style="overflow:visible;fill:none;stroke:#FFFFFF;stroke-width:2;stroke-miterlimit:10;"/>
		</g>
	</g>
	<g>
		<ellipse class="st51" cx="92.2" cy="312.7" rx="39.4" ry="38.8"/>
		<g>
			<defs>
				<ellipse id="SVGID_13_" cx="92.2" cy="312.7" rx="39.4" ry="38.8"/>
			</defs>
			<clipPath id="SVGID_14_">
				<use xlink:href="#SVGID_13_"  style="overflow:visible;"/>
			</clipPath>
			<g class="st52">
				<g>
					<path class="st28" d="M74.7,304v15.6c0,8.2,7.8,14.9,17.5,14.9c9.7,0,17.5-6.7,17.5-14.9V304H74.7z"/>
					<g>
						<path class="st22" d="M75.9,304c-0.9,0.2-1.2,2-0.7,4c0.5,2,1.6,3.4,2.4,3.2c0.9-0.2,1.2-2,0.7-4
							C77.9,305.2,76.8,303.8,75.9,304z"/>
						<path class="st22" d="M108.5,304c-0.9-0.2-1.9,1.2-2.4,3.2c-0.5,2-0.2,3.8,0.7,4c0.9,0.2,1.9-1.2,2.4-3.2
							C109.7,306,109.4,304.2,108.5,304z"/>
					</g>
					<rect x="88.4" y="319" class="st22" width="7.7" height="9.5"/>
					<ellipse class="st23" cx="92.2" cy="304.5" rx="14.7" ry="16.2"/>
					<path class="st28" d="M92.2,284.5c-12.7,0-17.5,12.4-17.5,19.2v2.7C85,304.8,92.2,293,92.2,293s7.2,11.7,17.5,13.4v-2.7
						C109.7,296.9,104.9,284.5,92.2,284.5z"/>
					<path class="st23" d="M102,326.6C102,326.6,102,326.6,102,326.6C102,326.6,102,326.6,102,326.6L102,326.6
						c-0.7-0.3-1.4-0.5-2.1-0.7c0,0,0,0,0,0c-2.4-0.7-5-1-7.7-1c-2.7,0-5.3,0.4-7.7,1c0,0,0,0,0,0c-0.7,0.2-1.4,0.4-2.1,0.7l0,0
						c0,0,0,0-0.1,0c0,0,0,0,0,0c-6,2.3-10.1,7-10.1,13.5v11.5h39.7v-11.5C112.1,333.6,108,329,102,326.6z"/>
					<rect x="79.3" y="331.5" class="st53" width="25.8" height="20.1"/>
					<path class="st23" d="M100.9,331.1c0,3.5-3.9,6.3-8.6,6.3c-4.8,0-8.6-2.8-8.6-6.3c0-3.5,3.9-6.3,8.6-6.3
						C97,324.7,100.9,327.6,100.9,331.1z"/>
					<g>
						<path class="st53" d="M82.5,326.5L82.5,326.5C82.5,326.5,82.4,326.5,82.5,326.5C82.4,326.6,82.4,326.6,82.5,326.5
							c-1.1,0.4-2.2,1-3.1,1.5v23.5h4.3v-25.5C83.2,326.3,82.8,326.4,82.5,326.5z"/>
						<path class="st53" d="M102,326.6C102,326.6,102,326.6,102,326.6C102,326.5,102,326.5,102,326.6L102,326.6
							c-0.4-0.2-0.8-0.3-1.2-0.4v25.5h4.3v-23.5C104.2,327.5,103.1,327,102,326.6z"/>
					</g>
				</g>
				<path class="st25" d="M74.7,303.7v0.2v2.5v13.1c0,3.5,1.4,6.6,3.7,9.2c-3.8,2.6-6.1,6.5-6.1,11.4v11.5h7h4.3h8.6v-67.1
					C79.5,284.5,74.7,296.9,74.7,303.7z"/>
			</g>
			<use xlink:href="#SVGID_13_"  style="overflow:visible;fill:none;stroke:#FFFFFF;stroke-width:2;stroke-miterlimit:10;"/>
		</g>
	</g>
	<g>
		<ellipse class="st54" cx="162.2" cy="419.1" rx="39.4" ry="38.8"/>
		<g>
			<defs>
				<ellipse id="SVGID_15_" cx="162.2" cy="419.1" rx="39.4" ry="38.8"/>
			</defs>
			<clipPath id="SVGID_16_">
				<use xlink:href="#SVGID_15_"  style="overflow:visible;"/>
			</clipPath>
			<g class="st55">
				<g>
					<g>
						<path class="st56" d="M145.8,408.8v3.8l3.8,3.3c0,0-0.2-9-0.4-8.9C149,407.1,145.8,408.8,145.8,408.8z"/>
						<path class="st56" d="M178.6,408.8v3.8l-3.8,3.3c0,0,0.2-9,0.4-8.9C175.4,407.1,178.6,408.8,178.6,408.8z"/>
					</g>
					<g>
						<path class="st22" d="M145.9,410.3c-0.9,0.2-1.2,2-0.7,4c0.5,2,1.6,3.4,2.4,3.2c0.9-0.2,1.2-2,0.7-4
							C147.9,411.6,146.8,410.1,145.9,410.3z"/>
						<path class="st22" d="M178.5,410.3c-0.9-0.2-1.9,1.2-2.4,3.2c-0.5,2-0.2,3.8,0.7,4c0.9,0.2,1.9-1.2,2.4-3.2
							C179.6,412.3,179.3,410.5,178.5,410.3z"/>
					</g>
					<rect x="158.3" y="425.4" class="st22" width="7.7" height="9.5"/>
					<ellipse class="st23" cx="162.2" cy="410.8" rx="14.7" ry="16.2"/>
					<path class="st56" d="M162.2,390.9c-12,0-16.5,10.5-16.5,16.3v2.3c9.7-1.4,16.5-10.1,16.5-10.1s6.8,8.6,16.5,10.1v-2.3
						C178.6,401.4,174.1,390.9,162.2,390.9z"/>
					<path class="st57" d="M172,433L172,433C172,433,172,432.9,172,433L172,433c-0.7-0.3-1.4-0.5-2.1-0.7c-1.3,2.1-4.2,3.7-7.7,3.7
						c-3.5,0-6.4-1.5-7.7-3.7c-0.7,0.2-1.4,0.4-2.1,0.7l0,0c0,0,0,0-0.1,0l0,0c-6,2.3-10.1,7-10.1,13.5V458h39.7v-11.5
						C182.1,440,178,435.3,172,433z"/>
					<path class="st23" d="M169.9,432.3c-2.4-0.7-5-1.1-7.7-1.1c-2.8,0-5.4,0.4-7.7,1.1c1.2,2.1,4.2,3.6,7.7,3.6
						C165.7,435.9,168.7,434.4,169.9,432.3z"/>
					<path class="st56" d="M176.9,409.5c0,0-1.1,8.6-5.6,11c0,0-2.6-3.4-9.1-2.1c-6.6-1.4-9.1,2.1-9.1,2.1c-4.5-2.3-5.6-11-5.6-11
						s-1.6,6.2,0,11.5c2.9,9.3,11.9,13.4,14.7,13.4c2.8,0,11.8-4,14.7-13.4C178.5,415.7,176.9,409.5,176.9,409.5z M162.2,424.1
						c-3.3,0-4.5-2.6-4.5-2.6c2.3,0.3,4.5,0,4.5,0s2.2,0.3,4.5,0C166.7,421.5,165.5,424.1,162.2,424.1z"/>
					<path class="st58" d="M171.2,432.7c-0.4-0.1-0.8-0.3-1.3-0.4c-1.3,2.1-4.2,3.7-7.7,3.7c-3.5,0-6.4-1.5-7.7-3.7
						c-0.4,0.1-0.8,0.3-1.3,0.4V458h17.9V432.7z"/>
				</g>
				<path class="st25" d="M162.2,390.9c-12,0-16.5,10.5-16.5,16.3v2.3c0,0,0,0,0.1,0v0.9c-0.8,0.3-1,2-0.6,3.9c0.3,1.4,1,2.5,1.6,3
					c0.1,1.2,0.3,2.5,0.7,3.7c1.6,5.3,5.2,8.8,8.5,10.9c-0.5,0.1-1,0.2-1.5,0.4c0,0,0,0,0,0c-0.4,0.1-0.8,0.3-1.3,0.4
					c-0.3,0.1-0.5,0.2-0.8,0.3l0,0c0,0,0,0-0.1,0l0,0c-6,2.3-10.1,7-10.1,13.5V458h10.9h9V390.9z"/>
			</g>
			<use xlink:href="#SVGID_15_"  style="overflow:visible;fill:none;stroke:#FFFFFF;stroke-width:2;stroke-miterlimit:10;"/>
		</g>
	</g>
	<g>
		<ellipse class="st59" cx="167.5" cy="223" rx="9.6" ry="9.5"/>
		<path class="st11" d="M172.5,221.6h-3.6v-3.7c0-0.8-0.6-1.4-1.4-1.4c-0.7,0-1.4,0.6-1.4,1.4v3.7h-3.6c-0.7,0-1.4,0.6-1.4,1.4
			c0,0.8,0.6,1.4,1.4,1.4h3.6v3.7c0,0.8,0.6,1.4,1.4,1.4c0.7,0,1.4-0.6,1.4-1.4v-3.7h3.6c0.7,0,1.4-0.6,1.4-1.4
			C173.8,222.2,173.2,221.6,172.5,221.6z"/>
	</g>
	<g>
		<ellipse class="st59" cx="366.9" cy="491" rx="9.6" ry="9.5"/>
		<path class="st11" d="M371.9,489.6h-3.6v-3.7c0-0.8-0.6-1.4-1.4-1.4c-0.7,0-1.4,0.6-1.4,1.4v3.7h-3.6c-0.7,0-1.4,0.6-1.4,1.4
			c0,0.8,0.6,1.4,1.4,1.4h3.6v3.7c0,0.8,0.6,1.4,1.4,1.4c0.7,0,1.4-0.6,1.4-1.4v-3.7h3.6c0.7,0,1.4-0.6,1.4-1.4
			C373.3,490.2,372.7,489.6,371.9,489.6z"/>
	</g>
	<g>
		<ellipse class="st59" cx="537.6" cy="274.4" rx="9.6" ry="9.5"/>
		<polygon class="st11" points="537.6,268.5 539.2,272.9 543.9,273 540.1,275.8 541.5,280.2 537.6,277.6 533.8,280.2 535.1,275.8 
			531.4,273 536.1,272.9 		"/>
	</g>
	<g>
		<g>
			<path class="st11" d="M478.4,110.7c0,1.3-1.1,2.3-2.3,2.3h-39.6c-1.3,0-2.3-1-2.3-2.3V90.4c0-1.3,1.1-2.3,2.3-2.3H476
				c1.3,0,2.3,1,2.3,2.3V110.7z"/>
			<polygon class="st11" points="456,109.6 446,123.3 446,108.6 			"/>
		</g>
		<g>
			<path class="st60" d="M446.2,101.1c0,1.3-1.1,2.4-2.4,2.4c-1.3,0-2.4-1.1-2.4-2.4c0-1.3,1.1-2.4,2.4-2.4
				C445.1,98.7,446.2,99.8,446.2,101.1z"/>
			<path class="st60" d="M454.5,101.1c0,1.3-1.1,2.4-2.4,2.4c-1.3,0-2.4-1.1-2.4-2.4c0-1.3,1.1-2.4,2.4-2.4
				C453.4,98.7,454.5,99.8,454.5,101.1z"/>
			<path class="st60" d="M462.8,101.1c0,1.3-1.1,2.4-2.4,2.4c-1.3,0-2.4-1.1-2.4-2.4c0-1.3,1.1-2.4,2.4-2.4
				C461.7,98.7,462.8,99.8,462.8,101.1z"/>
			<path class="st60" d="M471.1,101.1c0,1.3-1.1,2.4-2.4,2.4c-1.3,0-2.4-1.1-2.4-2.4c0-1.3,1.1-2.4,2.4-2.4
				C470,98.7,471.1,99.8,471.1,101.1z"/>
		</g>
	</g>
	<g>
		<g>
			<path class="st11" d="M59.4,250.6c0,1.3,1.1,2.3,2.3,2.3h39.6c1.3,0,2.3-1,2.3-2.3v-20.4c0-1.3-1.1-2.3-2.3-2.3H61.7
				c-1.3,0-2.3,1-2.3,2.3V250.6z"/>
			<polygon class="st11" points="81.8,249.5 91.7,263.2 91.7,248.5 			"/>
		</g>
		<g>
			<path class="st60" d="M91.6,240.9c0,1.3,1.1,2.4,2.4,2.4c1.3,0,2.4-1.1,2.4-2.4c0-1.3-1.1-2.4-2.4-2.4
				C92.6,238.6,91.6,239.6,91.6,240.9z"/>
			<path class="st60" d="M83.3,240.9c0,1.3,1.1,2.4,2.4,2.4c1.3,0,2.4-1.1,2.4-2.4c0-1.3-1.1-2.4-2.4-2.4
				C84.3,238.6,83.3,239.6,83.3,240.9z"/>
			<path class="st60" d="M75,240.9c0,1.3,1.1,2.4,2.4,2.4c1.3,0,2.4-1.1,2.4-2.4c0-1.3-1.1-2.4-2.4-2.4
				C76.1,238.6,75,239.6,75,240.9z"/>
			<path class="st60" d="M66.7,240.9c0,1.3,1.1,2.4,2.4,2.4c1.3,0,2.4-1.1,2.4-2.4c0-1.3-1.1-2.4-2.4-2.4
				C67.8,238.6,66.7,239.6,66.7,240.9z"/>
		</g>
	</g>
	<polygon class="st11" points="167.5,107.7 169.3,112.3 174.1,114.2 169.3,116 167.5,120.7 165.6,116 160.8,114.2 165.6,112.3 	"/>
	<g>
		<path class="st11" d="M526.7,419.8c0,4.9-4,8.9-9,8.9c-5,0-9-4-9-8.9s4-8.9,9-8.9C522.6,411,526.7,414.9,526.7,419.8z"/>
		<ellipse class="st11" cx="550.1" cy="419.8" rx="9" ry="8.9"/>
		<ellipse class="st11" cx="528" cy="408.7" rx="12.1" ry="11.9"/>
		<ellipse class="st11" cx="542.2" cy="412.6" rx="10" ry="9.9"/>
		<rect x="517.7" y="418.4" class="st11" width="32.7" height="10.3"/>
	</g>
	<g>
		<path class="st11" d="M133.6,178.8c0,4.9-4,8.9-9,8.9c-5,0-9-4-9-8.9c0-4.9,4-8.9,9-8.9C129.6,169.9,133.6,173.9,133.6,178.8z"/>
		<path class="st11" d="M166,178.8c0,4.9-4,8.9-9,8.9c-5,0-9-4-9-8.9c0-4.9,4-8.9,9-8.9C162,169.9,166,173.9,166,178.8z"/>
		<ellipse class="st11" cx="134.9" cy="167.7" rx="12.1" ry="11.9"/>
		<ellipse class="st11" cx="149.1" cy="171.6" rx="10" ry="9.9"/>
		<rect x="124.6" y="177.4" class="st11" width="32.7" height="10.3"/>
	</g>
	<g>
		<path class="st61" d="M115.7,453.9c0,1.5-1.3,2.8-2.9,2.8H82.9c-1.6,0-2.9-1.3-2.9-2.8v-18c0-1.5,1.3-2.8,2.9-2.8h29.8
			c1.6,0,2.9,1.3,2.9,2.8V453.9z"/>
		<g>
			<path class="st11" d="M97.8,445.1l15.7-9.6c-0.4-0.4-0.9-0.7-1.5-0.7H83.6c-0.6,0-1.1,0.3-1.5,0.7L97.8,445.1z"/>
			<g>
				<path class="st11" d="M114,453.2c0,0,0-0.1,0-0.1v-16.2l-11.4,7.3L114,453.2z"/>
				<path class="st11" d="M93,444.1l-11.4-7.3v16.2c0,0,0,0.1,0,0.1L93,444.1z"/>
				<path class="st11" d="M101.7,444.6l-3.5,1.9c-0.1,0.1-0.2,0.1-0.4,0.1c-0.1,0-0.3,0-0.4-0.1l-3.5-1.9l-12,9.6
					c0.4,0.5,1,0.8,1.6,0.8H112c0.7,0,1.3-0.3,1.6-0.8L101.7,444.6z"/>
			</g>
		</g>
	</g>
	<path class="st59" d="M306.6,104.2c-4.1,0-5.6,3.7-5.6,3.7s-1.5-3.7-5.6-3.7c-4.1,0-4.8,3.6-4.8,5.4c0,5.1,10.4,11.4,10.4,11.4
		s10.4-6.3,10.4-11.4C311.4,107.7,310.7,104.2,306.6,104.2z"/>
	<g>
		<g>
			<path class="st62" d="M378.8,428.1c0,1,0.9,1.9,1.9,1.9h32.5c1.1,0,1.9-0.9,1.9-1.9v-16.7c0-1-0.9-1.9-1.9-1.9h-32.5
				c-1.1,0-1.9,0.9-1.9,1.9V428.1z"/>
			<polygon class="st62" points="397.1,427.1 405.3,438.4 405.3,426.3 			"/>
		</g>
		<g>
			<path class="st11" d="M393.4,435.4c0,1-0.9,1.9-1.9,1.9H359c-1.1,0-1.9-0.9-1.9-1.9v-16.7c0-1,0.9-1.9,1.9-1.9h32.5
				c1.1,0,1.9,0.9,1.9,1.9V435.4z"/>
			<polygon class="st11" points="375,434.5 366.9,445.7 366.9,433.7 			"/>
		</g>
	</g>
	<ellipse class="st12" cx="175.1" cy="326.8" rx="2.2" ry="2.2"/>
	<g>
		<g>
			<g>
				<g>
					<ellipse class="st11" cx="190.5" cy="293.3" rx="9.7" ry="9.5"/>
					<path class="st11" d="M200.1,296.8v-3.4h-19.3c0,0,0,1.9,0,3.9c0,8.8-6.8,9.6-8.5,8.3c0,0,2.2,6.7,12.9,6.7
						C192.7,312.2,200.1,305,200.1,296.8z"/>
				</g>
				<polygon class="st11" points="198.9,291.5 205,294.7 197.7,297.7 				"/>
			</g>
			<path class="st63" d="M195.1,293.3c0,2-1.7,3.7-3.7,3.7c-2.1,0-3.7-1.6-3.7-3.7c0-2,1.7-3.7,3.7-3.7
				C193.5,289.7,195.1,291.3,195.1,293.3z"/>
		</g>
		<path class="st11" d="M185.1,294.8c0,0-4.8,1.3-10-2.7c0,0-2.5,8.2,7,9.2L185.1,294.8z"/>
	</g>
	<g>
		<path class="st11" d="M523.3,213.4c0,2.9-2.4,5.3-5.4,5.3c-3,0-5.4-2.4-5.4-5.3s2.4-5.3,5.4-5.3
			C520.9,208.1,523.3,210.5,523.3,213.4z"/>
		<g>
			<path class="st11" d="M548.3,203.4c0,2.9-2.4,5.3-5.4,5.3c-3,0-5.4-2.4-5.4-5.3c0-2.9,2.4-5.3,5.4-5.3
				C545.9,198.2,548.3,200.5,548.3,203.4z"/>
			<ellipse class="st11" cx="542.9" cy="223.3" rx="5.4" ry="5.3"/>
		</g>
		<g>
			<g>
				<g>
					<polygon class="st11" points="518.4,214.5 517.6,212.6 542.5,202.6 543.3,204.5 					"/>
				</g>
			</g>
			<g>
				<g>
					<polygon class="st11" points="542.5,224.1 517.6,214.2 518.4,212.3 543.3,222.2 					"/>
				</g>
			</g>
		</g>
	</g>
	<g>
		<g>
			<path class="st11" d="M104.4,129.2c-0.3,0-0.5-0.1-0.6-0.4l-11.7-19.5c0,0,0,0,0-0.1c-1.1-2-1.7-4.3-1.7-6.6
				c0-7.6,6.3-13.8,14-13.8c7.7,0,14,6.2,14,13.8c0,2.3-0.6,4.6-1.7,6.6c0,0,0,0,0,0.1l-11.7,19.5
				C104.9,129.1,104.7,129.2,104.4,129.2z"/>
		</g>
		<ellipse class="st63" cx="104.4" cy="102.8" rx="8.5" ry="8.3"/>
	</g>
	<g>
		<path class="st11" d="M428.6,511.2c-0.9,0.9-2.3,0.9-3.2,0l0,0c-0.9-0.9-0.9-2.3,0-3.1l16.8-16.6c0.9-0.9,2.3-0.9,3.2,0l0,0
			c0.9,0.9,0.9,2.3,0,3.1L428.6,511.2z"/>
		<ellipse class="st11" cx="446" cy="491" rx="13.4" ry="13.2"/>
		<ellipse class="st63" cx="446" cy="491" rx="10.4" ry="10.2"/>
		<path class="st64" d="M450.3,485.6c3,3,3,7.7,0,10.7"/>
		<polygon class="st11" points="426.4,515.7 420.9,510.3 429,502.3 434.5,507.7 		"/>
	</g>
	<g>
		<path class="st11" d="M252.4,523.1c0,2.1-1.8,3.9-3.9,3.9h-29.5c-2.2,0-3.9-1.7-3.9-3.9V494c0-2.1,1.8-3.9,3.9-3.9h29.5
			c2.2,0,3.9,1.7,3.9,3.9V523.1z"/>
		<g>
			<path class="st63" d="M243,508.6c0,5.1-4.2,9.2-9.3,9.2s-9.3-4.1-9.3-9.2c0-5.1,4.2-9.2,9.3-9.2S243,503.5,243,508.6z"/>
			<path class="st64" d="M233,502.5c3.8,0,6.9,3.1,6.9,6.8"/>
		</g>
		<ellipse class="st65" cx="233.7" cy="508.6" rx="12.3" ry="12.1"/>
		<path class="st63" d="M249.3,494.9c0,0.7-0.5,1.2-1.2,1.2h-4.6c-0.7,0-1.2-0.5-1.2-1.2l0,0c0-0.7,0.5-1.2,1.2-1.2h4.6
			C248.7,493.7,249.3,494.3,249.3,494.9L249.3,494.9z"/>
		<path class="st11" d="M227.5,487.2c1.4,0,2.6,1.1,2.6,2.6l0,0c0,1.4-1.2,2.6-2.6,2.6h-5.6c-1.4,0-2.6-1.1-2.6-2.6l0,0
			c0-1.4,1.2-2.6,2.6-2.6H227.5z"/>
	</g>
	<g>
		<g>
			<path class="st11" d="M330.6,164.2c-0.2,1-1.2,1.8-2.2,1.8l0,0c-1,0-1.7-0.8-1.5-1.8l5.8-27.3c0.2-1,1.2-1.8,2.2-1.8l0,0
				c1,0,1.7,0.8,1.5,1.8L330.6,164.2z"/>
			<path class="st11" d="M340,164.2c-0.2,1-1.2,1.8-2.2,1.8l0,0c-1,0-1.7-0.8-1.5-1.8l5.8-27.3c0.2-1,1.2-1.8,2.2-1.8l0,0
				c1,0,1.7,0.8,1.5,1.8L340,164.2z"/>
		</g>
		<g>
			<path class="st11" d="M324.6,146.6c-1,0-1.7-0.8-1.5-1.8l0,0c0.2-1,1.2-1.8,2.2-1.8h24c1,0,1.7,0.8,1.5,1.8l0,0
				c-0.2,1-1.2,1.8-2.2,1.8H324.6z"/>
			<path class="st11" d="M322.5,156.4c-1,0-1.7-0.8-1.5-1.8l0,0c0.2-1,1.2-1.8,2.2-1.8h24c1,0,1.7,0.8,1.5,1.8l0,0
				c-0.2,1-1.2,1.8-2.2,1.8H322.5z"/>
		</g>
	</g>
	<path class="st11" d="M335.6,42.9c0-1.1-0.8-2.1-1.9-2.4c1.1-0.3,1.9-1.2,1.9-2.4c0-1.3-1.1-2.4-2.5-2.4h-8.4
		c0.5-1.4,1.2-3.3,1.8-5.3c1.1-3.5-0.1-5.2-2.2-5.2c-1.6,0-2.6,1.1-3.4,4.4c-0.8,3.4-3.7,7.8-5.5,9h-5.8v-2.1h-5.3v18.3h5.7v-2.1
		h4.2c2.5,0,3.2,2,4.2,2h3.2h3.5h0.5h0.6h6.8c1.4,0,2.5-1.1,2.5-2.4c0-1.1-0.8-2.1-1.9-2.4c1.1-0.3,1.9-1.2,1.9-2.4
		c0-1.1-0.8-2.1-1.9-2.4C334.8,45,335.6,44,335.6,42.9z"/>
	<g>
		<g>
			<path class="st11" d="M420.9,341.9c-3.4,0-6.5,1.4-8.9,3.9c-0.7,0.7-0.7,1.9,0,2.6c0.7,0.7,1.8,0.7,2.5,0c1.7-1.8,4-2.8,6.5-2.8
				c2.4,0,4.7,1,6.5,2.8c0.3,0.4,0.8,0.5,1.2,0.5c0.4,0,0.9-0.2,1.2-0.5c0.7-0.7,0.7-1.9,0-2.6C427.4,343.2,424.3,341.9,420.9,341.9
				z"/>
			<path class="st11" d="M439.8,335.2c-5.1-5.3-11.8-8.3-18.9-8.3c-7.1,0-13.9,2.9-18.9,8.3c-0.7,0.7-0.7,1.9,0,2.6
				c0.7,0.7,1.8,0.7,2.5,0c4.4-4.6,10.2-7.2,16.5-7.2c6.2,0,12.1,2.6,16.5,7.2c0.3,0.4,0.8,0.5,1.2,0.5c0.4,0,0.9-0.2,1.2-0.5
				C440.5,337.1,440.5,335.9,439.8,335.2z"/>
			<path class="st11" d="M420.9,334.1c-5.3,0-10.3,2.2-14.1,6.2c-0.7,0.7-0.7,1.9,0,2.6c0.7,0.7,1.8,0.7,2.5,0
				c3.1-3.3,7.3-5.1,11.7-5.1c4.4,0,8.5,1.8,11.7,5.1c0.3,0.4,0.8,0.5,1.2,0.5c0.4,0,0.9-0.2,1.2-0.5c0.7-0.7,0.7-1.9,0-2.6
				C431.2,336.3,426.2,334.1,420.9,334.1z"/>
		</g>
		<path class="st11" d="M424.2,353.9c0,1.8-1.5,3.2-3.3,3.2c-1.8,0-3.3-1.4-3.3-3.2c0-1.8,1.5-3.2,3.3-3.2
			C422.7,350.7,424.2,352.1,424.2,353.9z"/>
	</g>
	<g>
		<g>
			<polygon class="st11" points="251.1,302.1 252.4,305.3 255.6,306.6 252.4,307.8 251.1,311 249.8,307.8 246.6,306.6 249.8,305.3 
							"/>
			<ellipse class="st66" cx="303.4" cy="304.1" rx="71" ry="70"/>
			<g>
				<path class="st67" d="M359.6,261.4c-15.9,8.1-35.2,12.9-56.2,12.9c-20.9,0-40.3-4.8-56.2-12.9"/>
				<path class="st67" d="M247.2,346.9c15.9-8.1,35.2-12.9,56.2-12.9c20.9,0,40.3,4.8,56.2,12.9"/>
			</g>
			<ellipse class="st67" cx="303.4" cy="304.1" rx="50.8" ry="70"/>
			<ellipse class="st67" cx="303.4" cy="304.1" rx="23.5" ry="70"/>
			<line class="st67" x1="232.4" y1="304.1" x2="374.4" y2="304.1"/>
			<line class="st67" x1="303.4" y1="374.1" x2="303.4" y2="234.2"/>
		</g>
		<path class="st68" d="M303.4,232.3L303.4,232.3c-23.3,0-44,10.8-57.4,27.6c-0.2,0.2-0.4,0.3-0.5,0.6c0,0,0,0,0,0.1
			c-9.4,12.1-15,27.2-15,43.6c0,16.4,5.6,31.5,15,43.6c0,0,0,0,0,0c0.1,0.2,0.3,0.4,0.4,0.5c13.4,16.8,34.1,27.7,57.4,27.7l0,0
			V232.3z"/>
	</g>
</g>
</svg>
